<?xml version="1.0" encoding="utf-8"?>
<!-- Generator: Adobe Illustrator 24.1.1, SVG Export Plug-In . SVG Version: 6.00 Build 0)  -->
<svg version="1.1" id="レイヤー_1" xmlns="http://www.w3.org/2000/svg" xmlns:xlink="http://www.w3.org/1999/xlink" x="0px"
	 y="0px" width="200px" height="200px" viewBox="0 0 200 200" style="enable-background:new 0 0 200 200;" xml:space="preserve">
<style type="text/css">
	.st0{fill:none;}
	.st1{fill:#FFFFFF;}
	.st2{fill:#333333;}
	.st3{opacity:0.82;fill:url(#SVGID_1_);}
	.st4{opacity:0.82;fill:#FBB03B;}
	.st5{opacity:0.82;fill:none;stroke:#FBB03B;stroke-width:5;stroke-miterlimit:10;}
</style>
<pattern  x="-50" y="-50" width="50" height="50" patternUnits="userSpaceOnUse" id="Nueva_muestra_de_motivo_19" viewBox="0 -50 50 50" style="overflow:visible;">
	<g>
		<rect y="-50" class="st0" width="50" height="50"/>
		<rect y="-50" class="st1" width="50" height="50"/>
		<g>
			<g>
				<path class="st2" d="M13.774-34.726c-0.384,0-0.768-0.146-1.061-0.439L5.06-42.819c-0.586-0.585-0.586-1.536,0-2.121
					c0.586-0.586,1.535-0.586,2.121,0l7.654,7.654c0.586,0.585,0.586,1.536,0,2.121C14.542-34.872,14.158-34.726,13.774-34.726z"/>
			</g>
			<g>
				<path class="st2" d="M36.226-34.726c-0.384,0-0.768-0.146-1.061-0.439c-0.586-0.585-0.586-1.536,0-2.121l7.654-7.654
					c0.586-0.586,1.535-0.586,2.121,0c0.586,0.585,0.586,1.536,0,2.121l-7.654,7.654C36.993-34.872,36.609-34.726,36.226-34.726z"/>
			</g>
			<g>
				<path class="st2" d="M6.121-4.621c-0.384,0-0.768-0.146-1.061-0.439c-0.586-0.585-0.586-1.536,0-2.121l7.654-7.654
					c0.586-0.586,1.535-0.586,2.121,0c0.586,0.585,0.586,1.536,0,2.121L7.181-5.06C6.888-4.767,6.504-4.621,6.121-4.621z"/>
			</g>
			<g>
				<path class="st2" d="M43.879-4.621c-0.384,0-0.768-0.146-1.061-0.439l-7.654-7.654c-0.586-0.585-0.586-1.536,0-2.121
					c0.586-0.586,1.535-0.586,2.121,0l7.654,7.654c0.586,0.585,0.586,1.536,0,2.121C44.647-4.767,44.263-4.621,43.879-4.621z"/>
			</g>
			<g>
				<circle class="st2" cx="25" cy="-25" r="1.843"/>
			</g>
		</g>
	</g>
</pattern>
<pattern  id="SVGID_1_" xlink:href="#Nueva_muestra_de_motivo_19" patternTransform="matrix(0.3552 0 0 0.3552 -5149.2964 -5083.4717)">
</pattern>
<path class="st3" d="M104.759,18L54.22,105.535c-3.493,6.05,4.227,12.301,9.418,7.626l41.12-37.036l41.12,37.036
	c5.191,4.676,12.911-1.575,9.418-7.626L104.759,18z"/>
<path class="st4" d="M95.071,18l-50.538,87.535c-3.493,6.05,4.227,12.301,9.418,7.626l41.12-37.036l41.12,37.036
	c5.191,4.676,12.911-1.575,9.418-7.626L95.071,18z"/>
<line class="st5" x1="95.071" y1="76.125" x2="95.071" y2="173"/>
</svg>
