<svg width="724" height="107" viewBox="0 0 724 107" fill="none" xmlns="http://www.w3.org/2000/svg">
<path d="M1.86891 4.316V3.316H0.868914V4.316H1.86891ZM44.9049 8.556L44.3979 9.41793L44.4053 9.42231L44.4129 9.42656L44.9049 8.556ZM48.5089 34.208L49.2695 34.8573L49.2771 34.8482L48.5089 34.208ZM37.8029 39.826L37.624 38.8421L36.8029 38.9914V39.826H37.8029ZM37.8029 40.356H36.8029V41.2125L37.6492 41.3441L37.8029 40.356ZM46.3889 43.112L45.9221 43.9964L45.9321 44.0016L46.3889 43.112ZM52.5369 48.836L53.3944 48.3215L53.3944 48.3215L52.5369 48.836ZM47.6609 74.382L47.0405 73.5977L47.0348 73.6023L47.6609 74.382ZM1.86891 80H0.868914V81H1.86891V80ZM11.4089 36.54H10.4089V37.54H11.4089V36.54ZM38.7569 33.466L39.4059 34.2268L39.4122 34.2214L39.4185 34.2158L38.7569 33.466ZM37.9089 15.234L37.3734 16.0785L37.3853 16.0861L37.3974 16.0933L37.9089 15.234ZM11.4089 12.478V11.478H10.4089V12.478H11.4089ZM11.4089 44.49V43.49H10.4089V44.49H11.4089ZM11.4089 71.944H10.4089V72.944H11.4089V71.944ZM40.6649 68.022L41.372 68.7291L41.372 68.7291L40.6649 68.022ZM40.4529 48.2L39.7754 48.9355L39.7855 48.9448L39.7958 48.9538L40.4529 48.2ZM1.86891 5.316H23.4929V3.316H1.86891V5.316ZM23.4929 5.316C32.8937 5.316 39.8192 6.72456 44.3979 9.41793L45.4119 7.69406C40.38 4.7341 33.0308 3.316 23.4929 3.316V5.316ZM44.4129 9.42656C48.8966 11.9609 51.2189 16.4131 51.2189 23.078H53.2189C53.2189 15.8922 50.6652 10.6631 45.397 7.68543L44.4129 9.42656ZM51.2189 23.078C51.2189 27.3337 50.0418 30.8064 47.7407 33.5678L49.2771 34.8482C51.9227 31.6735 53.2189 27.7263 53.2189 23.078H51.2189ZM47.7483 33.5587C45.4583 36.2414 42.1183 38.025 37.624 38.8421L37.9818 40.8099C42.8155 39.931 46.6129 37.9692 49.2695 34.8573L47.7483 33.5587ZM36.8029 39.826V40.356H38.8029V39.826H36.8029ZM37.6492 41.3441C40.7327 41.8238 43.4869 42.7111 45.9222 43.9964L46.8557 42.2276C44.2029 40.8275 41.2331 39.8776 37.9566 39.3679L37.6492 41.3441ZM45.9321 44.0016C48.3842 45.2607 50.2933 47.0403 51.6794 49.3505L53.3944 48.3215C51.8125 45.685 49.623 43.6486 46.8457 42.2224L45.9321 44.0016ZM51.6794 49.3505C53.0417 51.621 53.7629 54.6412 53.7629 58.482H55.7629C55.7629 54.4082 55.0001 50.9977 53.3944 48.3215L51.6794 49.3505ZM53.7629 58.482C53.7629 65.0779 51.5009 70.0694 47.0405 73.5977L48.2813 75.1663C53.2903 71.204 55.7629 65.5955 55.7629 58.482H53.7629ZM47.0348 73.6023C42.6027 77.1614 36.4551 79 28.4749 79V81C36.7481 81 43.3911 79.0933 48.2871 75.1617L47.0348 73.6023ZM28.4749 79H1.86891V81H28.4749V79ZM2.86891 80V4.316H0.868914V80H2.86891ZM11.4089 37.54H25.4009V35.54H11.4089V37.54ZM25.4009 37.54C31.9293 37.54 36.709 36.5271 39.4059 34.2268L38.108 32.7052C35.9995 34.5036 31.8752 35.54 25.4009 35.54V37.54ZM39.4185 34.2158C42.0932 31.8559 43.3609 28.4379 43.3609 24.138H41.3609C41.3609 28.0354 40.226 30.8361 38.0953 32.7162L39.4185 34.2158ZM43.3609 24.138C43.3609 19.7017 41.7582 16.3615 38.4204 14.3747L37.3974 16.0933C39.9956 17.6398 41.3609 20.2356 41.3609 24.138H43.3609ZM38.4445 14.3895C35.2995 12.3951 30.3965 11.478 23.9169 11.478V13.478C30.2986 13.478 34.7237 14.3982 37.3734 16.0785L38.4445 14.3895ZM23.9169 11.478H11.4089V13.478H23.9169V11.478ZM10.4089 12.478V36.54H12.4089V12.478H10.4089ZM10.4089 44.49V71.944H12.4089V44.49H10.4089ZM11.4089 72.944H26.6729V70.944H11.4089V72.944ZM26.6729 72.944C33.4547 72.944 38.4658 71.6353 41.372 68.7291L39.9578 67.3149C37.6347 69.638 33.3178 70.944 26.6729 70.944V72.944ZM41.372 68.7291C44.2021 65.899 45.5869 62.203 45.5869 57.74H43.5869C43.5869 61.757 42.3571 64.9156 39.9578 67.3149L41.372 68.7291ZM45.5869 57.74C45.5869 53.5205 44.1034 50.0558 41.1101 47.4462L39.7958 48.9538C42.3145 51.1496 43.5869 54.0448 43.5869 57.74H45.5869ZM41.1304 47.4645C38.1523 44.7215 32.9764 43.49 25.9309 43.49V45.49C32.8774 45.49 37.3828 46.7318 39.7754 48.9355L41.1304 47.4645ZM25.9309 43.49H11.4089V45.49H25.9309V43.49ZM117.026 23.184H118.026V22.184H117.026V23.184ZM117.026 80V81H118.026V80H117.026ZM109.394 80L108.411 80.1801L108.561 81H109.394V80ZM108.016 72.474L109 72.2939L108.85 71.474H108.016V72.474ZM107.592 72.474V71.474H107.035L106.742 71.9476L107.592 72.474ZM99.9603 79.046L100.342 79.9703L100.351 79.9667L100.359 79.9631L99.9603 79.046ZM74.0963 76.184L73.4041 76.9057L73.4119 76.9131L74.0963 76.184ZM68.9023 23.184V22.184H67.9023V23.184H68.9023ZM78.3363 23.184H79.3363V22.184H78.3363V23.184ZM103.988 68.022L103.169 67.4485L103.161 67.4597L103.988 68.022ZM107.698 23.184V22.184H106.698V23.184H107.698ZM116.026 23.184V80H118.026V23.184H116.026ZM117.026 79H109.394V81H117.026V79ZM110.378 79.8199L109 72.2939L107.033 72.6541L108.411 80.1801L110.378 79.8199ZM108.016 71.474H107.592V73.474H108.016V71.474ZM106.742 71.9476C105.014 74.7396 102.629 76.7955 99.5616 78.1289L100.359 79.9631C103.793 78.4699 106.496 76.1444 108.443 73.0004L106.742 71.9476ZM99.5786 78.1217C96.4544 79.4122 93.122 80.06 89.5723 80.06V82.06C93.372 82.06 96.9649 81.3652 100.342 79.9703L99.5786 78.1217ZM89.5723 80.06C82.8599 80.06 77.9899 78.4676 74.7808 75.4549L73.4119 76.9131C77.1281 80.4017 82.5754 82.06 89.5723 82.06V80.06ZM74.7885 75.4623C71.6028 72.4066 69.9023 67.4616 69.9023 60.39H67.9023C67.9023 67.7344 69.6645 73.3187 73.4041 76.9057L74.7885 75.4623ZM69.9023 60.39V23.184H67.9023V60.39H69.9023ZM68.9023 24.184H78.3363V22.184H68.9023V24.184ZM77.3363 23.184V59.754H79.3363V23.184H77.3363ZM77.3363 59.754C77.3363 64.4134 78.4178 68.0943 80.7574 70.6109C83.1099 73.1412 86.5721 74.322 90.9503 74.322V72.322C86.9192 72.322 84.0744 71.2414 82.2222 69.2491C80.3572 67.243 79.3363 64.1399 79.3363 59.754H77.3363ZM90.9503 74.322C97.4046 74.322 102.149 72.5049 104.815 68.5843L103.161 67.4597C101.022 70.6057 97.0747 72.322 90.9503 72.322V74.322ZM104.808 68.5955C107.446 64.8256 108.698 59.5024 108.698 52.758H106.698C106.698 59.2989 105.477 64.1518 103.169 67.4485L104.808 68.5955ZM108.698 52.758V23.184H106.698V52.758H108.698ZM107.698 24.184H117.026V22.184H107.698V24.184ZM177.782 27.106L177.089 27.8277L177.097 27.8351L177.782 27.106ZM182.976 80V81H183.976V80H182.976ZM173.754 80H172.754V81H173.754V80ZM147.996 35.268L148.823 35.8303L148.823 35.8303L147.996 35.268ZM144.392 80V81H145.392V80H144.392ZM135.064 80H134.064V81H135.064V80ZM135.064 23.184V22.184H134.064V23.184H135.064ZM142.59 23.184L143.574 23.0087L143.427 22.184H142.59V23.184ZM143.968 30.922L142.983 31.0973L143.13 31.922H143.968V30.922ZM144.498 30.922V31.922H145.055L145.348 31.4484L144.498 30.922ZM152.13 24.35L152.528 25.2671L152.537 25.2635L152.545 25.2597L152.13 24.35ZM162.412 23.124C169.045 23.124 173.878 24.7475 177.089 27.8277L178.474 26.3843C174.76 22.8218 169.346 21.124 162.412 21.124V23.124ZM177.097 27.8351C180.271 30.8145 181.976 35.7839 181.976 43.006H183.976C183.976 35.5295 182.218 29.8988 178.466 26.3769L177.097 27.8351ZM181.976 43.006V80H183.976V43.006H181.976ZM182.976 79H173.754V81H182.976V79ZM174.754 80V43.642H172.754V80H174.754ZM174.754 43.642C174.754 38.9471 173.663 35.2396 171.306 32.7054C168.936 30.1575 165.447 28.968 161.034 28.968V30.968C165.1 30.968 167.972 32.0575 169.842 34.0676C171.724 36.0913 172.754 39.2209 172.754 43.642H174.754ZM161.034 28.968C154.579 28.968 149.835 30.7851 147.169 34.7057L148.823 35.8303C150.962 32.6843 154.909 30.968 161.034 30.968V28.968ZM147.169 34.7057C144.607 38.4734 143.392 43.7919 143.392 50.532H145.392C145.392 43.9868 146.579 39.1292 148.823 35.8303L147.169 34.7057ZM143.392 50.532V80H145.392V50.532H143.392ZM144.392 79H135.064V81H144.392V79ZM136.064 80V23.184H134.064V80H136.064ZM135.064 24.184H142.59V22.184H135.064V24.184ZM141.605 23.3593L142.983 31.0973L144.952 30.7467L143.574 23.0087L141.605 23.3593ZM143.968 31.922H144.498V29.922H143.968V31.922ZM145.348 31.4484C147.076 28.6564 149.461 26.6005 152.528 25.2671L151.731 23.4329C148.297 24.9261 145.594 27.2516 143.647 30.3956L145.348 31.4484ZM152.545 25.2597C155.664 23.8357 158.95 23.124 162.412 23.124V21.124C158.666 21.124 155.097 21.8963 151.714 23.4403L152.545 25.2597ZM243.307 27.106L242.615 27.8277L242.623 27.8351L243.307 27.106ZM248.501 80V81H249.501V80H248.501ZM239.279 80H238.279V81H239.279V80ZM213.521 35.268L214.348 35.8303L214.348 35.8303L213.521 35.268ZM209.917 80V81H210.917V80H209.917ZM200.589 80H199.589V81H200.589V80ZM200.589 23.184V22.184H199.589V23.184H200.589ZM208.115 23.184L209.1 23.0087L208.953 22.184H208.115V23.184ZM209.493 30.922L208.509 31.0973L208.655 31.922H209.493V30.922ZM210.023 30.922V31.922H210.58L210.873 31.4484L210.023 30.922ZM217.655 24.35L218.054 25.2671L218.062 25.2635L218.07 25.2597L217.655 24.35ZM227.937 23.124C234.57 23.124 239.404 24.7475 242.615 27.8277L243.999 26.3843C240.285 22.8218 234.872 21.124 227.937 21.124V23.124ZM242.623 27.8351C245.796 30.8145 247.501 35.7839 247.501 43.006H249.501C249.501 35.5295 247.743 29.8988 243.992 26.3769L242.623 27.8351ZM247.501 43.006V80H249.501V43.006H247.501ZM248.501 79H239.279V81H248.501V79ZM240.279 80V43.642H238.279V80H240.279ZM240.279 43.642C240.279 38.9471 239.189 35.2396 236.831 32.7054C234.461 30.1575 230.973 28.968 226.559 28.968V30.968C230.626 30.968 233.497 32.0575 235.367 34.0676C237.249 36.0913 238.279 39.2209 238.279 43.642H240.279ZM226.559 28.968C220.105 28.968 215.36 30.7851 212.694 34.7057L214.348 35.8303C216.487 32.6843 220.435 30.968 226.559 30.968V28.968ZM212.694 34.7057C210.132 38.4734 208.917 43.7919 208.917 50.532H210.917C210.917 43.9868 212.105 39.1292 214.348 35.8303L212.694 34.7057ZM208.917 50.532V80H210.917V50.532H208.917ZM209.917 79H200.589V81H209.917V79ZM201.589 80V23.184H199.589V80H201.589ZM200.589 24.184H208.115V22.184H200.589V24.184ZM207.131 23.3593L208.509 31.0973L210.478 30.7467L209.1 23.0087L207.131 23.3593ZM209.493 31.922H210.023V29.922H209.493V31.922ZM210.873 31.4484C212.602 28.6564 214.987 26.6005 218.054 25.2671L217.256 23.4329C213.822 24.9261 211.119 27.2516 209.173 30.3956L210.873 31.4484ZM218.07 25.2597C221.19 23.8357 224.475 23.124 227.937 23.124V21.124C224.191 21.124 220.622 21.8963 217.24 23.4403L218.07 25.2597ZM300.564 25.304L300.042 26.1569L300.05 26.1615L300.564 25.304ZM308.62 34.314L307.716 34.7414L307.721 34.7513L307.726 34.7612L308.62 34.314ZM311.482 53.394V54.394H312.482V53.394H311.482ZM272.58 53.394V52.394H271.558L271.581 53.416L272.58 53.394ZM277.456 68.128L276.719 68.8037L276.727 68.8117L276.734 68.8196L277.456 68.128ZM300.246 72.156L300.471 73.1304L300.48 73.1283L300.489 73.1261L300.246 72.156ZM308.938 69.188H309.938V67.6715L308.545 68.2689L308.938 69.188ZM308.938 77.35L309.34 78.2656L309.938 78.0031V77.35H308.938ZM300.352 80.106L300.156 79.1254L300.145 79.1278L300.133 79.1304L300.352 80.106ZM275.972 77.774L275.501 78.656L275.507 78.6592L275.972 77.774ZM266.326 68.022L265.438 68.4806L265.442 68.4893L265.447 68.4978L266.326 68.022ZM266.008 36.01L265.106 35.58L265.1 35.5919L266.008 36.01ZM274.806 25.728L274.274 24.8817L274.267 24.8863L274.806 25.728ZM277.35 34.102L276.608 33.432L276.607 33.433L277.35 34.102ZM272.792 45.974L271.797 45.8772L271.691 46.974H272.792V45.974ZM301.73 45.974V46.974H302.745L302.73 45.9593L301.73 45.974ZM298.338 34.314L297.527 34.8988L297.534 34.9078L298.338 34.314ZM288.056 23.124C292.785 23.124 296.766 24.1508 300.042 26.1568L301.087 24.4511C297.438 22.2172 293.08 21.124 288.056 21.124V23.124ZM300.05 26.1615C303.406 28.1752 305.96 31.0253 307.716 34.7414L309.525 33.8866C307.607 29.8294 304.789 26.6728 301.079 24.4465L300.05 26.1615ZM307.726 34.7612C309.552 38.4123 310.482 42.7405 310.482 47.776H312.482C312.482 42.4941 311.505 37.8477 309.515 33.8668L307.726 34.7612ZM310.482 47.776V53.394H312.482V47.776H310.482ZM311.482 52.394H272.58V54.394H311.482V52.394ZM271.581 53.416C271.725 59.9931 273.391 65.1728 276.719 68.8037L278.194 67.4523C275.303 64.2992 273.718 59.6563 273.58 53.372L271.581 53.416ZM276.734 68.8196C280.145 72.3815 284.847 74.11 290.706 74.11V72.11C285.259 72.11 281.128 70.5171 278.179 67.4364L276.734 68.8196ZM290.706 74.11C294.367 74.11 297.625 73.7873 300.471 73.1304L300.022 71.1816C297.356 71.7967 294.254 72.11 290.706 72.11V74.11ZM300.489 73.1261C303.373 72.4052 306.321 71.3979 309.332 70.1071L308.545 68.2689C305.62 69.5221 302.774 70.4934 300.004 71.1859L300.489 73.1261ZM307.938 69.188V77.35H309.938V69.188H307.938ZM308.537 76.4344C305.699 77.6801 302.906 78.5755 300.156 79.1254L300.549 81.0866C303.453 80.5058 306.383 79.5639 309.34 78.2656L308.537 76.4344ZM300.133 79.1304C297.398 79.7458 294.119 80.06 290.282 80.06V82.06C294.22 82.06 297.654 81.7382 300.572 81.0816L300.133 79.1304ZM290.282 80.06C285.051 80.06 280.444 78.9941 276.438 76.8888L275.507 78.6592C279.839 80.9353 284.773 82.06 290.282 82.06V80.06ZM276.444 76.8921C272.528 74.799 269.45 71.6943 267.206 67.5462L265.447 68.4978C267.867 72.971 271.22 76.3677 275.501 78.6559L276.444 76.8921ZM267.215 67.5634C265.044 63.3575 263.934 58.1885 263.934 52.016H261.934C261.934 58.4221 263.086 63.9238 265.438 68.4806L267.215 67.5634ZM263.934 52.016C263.934 45.9042 264.942 40.7187 266.917 36.4281L265.1 35.5919C262.976 40.2053 261.934 45.6905 261.934 52.016H263.934ZM266.911 36.4399C268.96 32.1375 271.775 28.861 275.346 26.5697L274.267 24.8863C270.348 27.4004 267.297 30.9784 265.106 35.5801L266.911 36.4399ZM275.339 26.5742C278.978 24.2831 283.206 23.124 288.056 23.124V21.124C282.873 21.124 278.267 22.3676 274.274 24.8818L275.339 26.5742ZM287.95 28.756C283.26 28.756 279.44 30.294 276.608 33.432L278.093 34.772C280.49 32.1153 283.737 30.756 287.95 30.756V28.756ZM276.607 33.433C273.878 36.4653 272.305 40.6489 271.797 45.8772L273.788 46.0708C274.269 41.1231 275.735 37.3921 278.094 34.771L276.607 33.433ZM272.792 46.974H301.73V44.974H272.792V46.974ZM302.73 45.9593C302.658 41.0082 301.49 36.9005 299.143 33.7201L297.534 34.9078C299.568 37.6635 300.662 41.3292 300.731 45.9887L302.73 45.9593ZM299.15 33.7292C296.722 30.3617 292.912 28.756 287.95 28.756V30.756C292.458 30.756 295.574 32.189 297.527 34.8988L299.15 33.7292ZM355.839 22.336L355.722 23.3291L355.752 23.3327L355.783 23.3345L355.839 22.336ZM359.125 22.76L360.115 22.8946L360.238 21.9907L359.349 21.7856L359.125 22.76ZM357.959 31.346L357.734 32.3204L358.802 32.5669L358.949 31.4806L357.959 31.346ZM354.885 30.816L354.752 31.8073L354.76 31.8083L354.885 30.816ZM343.649 33.042L344.17 33.8953L344.178 33.8901L344.187 33.8847L343.649 33.042ZM337.501 39.72L336.619 39.2472L336.615 39.2552L337.501 39.72ZM335.275 80V81H336.275V80H335.275ZM325.947 80H324.947V81H325.947V80ZM325.947 23.184V22.184H324.947V23.184H325.947ZM333.579 23.184L334.573 23.0825L334.482 22.184H333.579V23.184ZM334.639 33.572L333.644 33.6735L333.735 34.572H334.639V33.572ZM335.063 33.572V34.572H335.633L335.923 34.0807L335.063 33.572ZM342.165 25.516L342.78 26.3043L342.78 26.3043L342.165 25.516ZM352.447 23.124C353.462 23.124 354.554 23.1918 355.722 23.3291L355.955 21.3428C354.721 21.1976 353.551 21.124 352.447 21.124V23.124ZM355.783 23.3345C357.016 23.403 358.052 23.5388 358.9 23.7344L359.349 21.7856C358.36 21.5572 357.205 21.4103 355.894 21.3375L355.783 23.3345ZM358.134 22.6254L356.968 31.2114L358.949 31.4806L360.115 22.8946L358.134 22.6254ZM358.183 30.3716C357.225 30.1505 356.166 29.9685 355.009 29.8237L354.76 31.8083C355.864 31.9462 356.854 32.1175 357.734 32.3204L358.183 30.3716ZM355.017 29.8248C353.916 29.6781 352.847 29.604 351.811 29.604V31.604C352.752 31.604 353.733 31.6713 354.752 31.8072L355.017 29.8248ZM351.811 29.604C348.714 29.604 345.808 30.4758 343.11 32.1993L344.187 33.8847C346.577 32.3575 349.112 31.604 351.811 31.604V29.604ZM343.127 32.1887C340.416 33.8453 338.249 36.2099 336.619 39.2472L338.382 40.1928C339.861 37.4355 341.793 35.348 344.17 33.8953L343.127 32.1887ZM336.615 39.2552C335.042 42.2507 334.275 45.7375 334.275 49.684H336.275C336.275 45.9985 336.991 42.8426 338.386 40.1848L336.615 39.2552ZM334.275 49.684V80H336.275V49.684H334.275ZM335.275 79H325.947V81H335.275V79ZM326.947 80V23.184H324.947V80H326.947ZM325.947 24.184H333.579V22.184H325.947V24.184ZM332.584 23.2855L333.644 33.6735L335.633 33.4705L334.573 23.0825L332.584 23.2855ZM334.639 34.572H335.063V32.572H334.639V34.572ZM335.923 34.0807C337.696 31.0811 339.979 28.49 342.78 26.3043L341.549 24.7277C338.555 27.0646 336.104 29.8443 334.202 33.0633L335.923 34.0807ZM342.78 26.3043C345.488 24.191 348.694 23.124 352.447 23.124V21.124C348.284 21.124 344.636 22.3184 341.549 24.7277L342.78 26.3043ZM445.78 70.354L446.461 71.0868L446.461 71.0865L445.78 70.354ZM395.642 80H394.642V81H395.642V80ZM395.642 4.316V3.316H394.642V4.316H395.642ZM451.716 21.064L450.841 21.5468L450.843 21.5516L451.716 21.064ZM438.678 19.58L437.987 20.3024L437.992 20.3075L437.998 20.3124L438.678 19.58ZM405.182 12.478V11.478H404.182V12.478H405.182ZM405.182 71.838H404.182V72.838H405.182V71.838ZM455.274 41.416C455.274 54.0271 451.83 63.3673 445.1 69.6215L446.461 71.0865C453.723 64.3381 457.274 54.3862 457.274 41.416H455.274ZM445.1 69.6212C438.412 75.8315 429.003 79 416.736 79V81C429.344 81 439.298 77.7378 446.461 71.0868L445.1 69.6212ZM416.736 79H395.642V81H416.736V79ZM396.642 80V4.316H394.642V80H396.642ZM395.642 5.316H418.962V3.316H395.642V5.316ZM418.962 5.316C426.471 5.316 432.917 6.70629 438.333 9.44815L439.236 7.66384C433.486 4.75237 426.717 3.316 418.962 3.316V5.316ZM438.333 9.44815C443.735 12.1835 447.898 16.2096 450.841 21.5468L452.592 20.5812C449.457 14.8944 444.999 10.5818 439.236 7.66384L438.333 9.44815ZM450.843 21.5516C453.777 26.8053 455.274 33.4096 455.274 41.416H457.274C457.274 33.169 455.733 26.2054 452.589 20.5764L450.843 21.5516ZM447.204 41.734C447.204 31.4836 444.66 23.7754 439.359 18.8476L437.998 20.3124C442.731 24.7126 445.204 31.7737 445.204 41.734H447.204ZM439.37 18.8576C434.182 13.8922 426.87 11.478 417.584 11.478V13.478C426.53 13.478 433.281 15.7985 437.987 20.3024L439.37 18.8576ZM417.584 11.478H405.182V13.478H417.584V11.478ZM404.182 12.478V71.838H406.182V12.478H404.182ZM405.182 72.838H415.464V70.838H405.182V72.838ZM415.464 72.838C425.86 72.838 433.841 70.2929 439.219 65.0265C444.601 59.7563 447.204 51.9282 447.204 41.734H445.204C445.204 51.6092 442.685 58.8331 437.82 63.5975C432.951 68.3658 425.562 70.838 415.464 70.838V72.838ZM506.25 25.304L505.728 26.1569L505.736 26.1615L506.25 25.304ZM514.306 34.314L513.402 34.7414L513.407 34.7513L513.412 34.7612L514.306 34.314ZM517.168 53.394V54.394H518.168V53.394H517.168ZM478.266 53.394V52.394H477.244L477.266 53.416L478.266 53.394ZM483.142 68.128L482.405 68.8037L482.412 68.8117L482.42 68.8196L483.142 68.128ZM505.932 72.156L506.157 73.1304L506.166 73.1283L506.175 73.1261L505.932 72.156ZM514.624 69.188H515.624V67.6715L514.23 68.2689L514.624 69.188ZM514.624 77.35L515.026 78.2656L515.624 78.0031V77.35H514.624ZM506.038 80.106L505.842 79.1254L505.83 79.1278L505.819 79.1304L506.038 80.106ZM481.658 77.774L481.187 78.656L481.193 78.6592L481.658 77.774ZM472.012 68.022L471.123 68.4806L471.128 68.4893L471.132 68.4978L472.012 68.022ZM471.694 36.01L470.791 35.58L470.786 35.5919L471.694 36.01ZM480.492 25.728L479.959 24.8817L479.952 24.8863L480.492 25.728ZM483.036 34.102L482.294 33.432L482.293 33.433L483.036 34.102ZM478.478 45.974L477.483 45.8772L477.376 46.974H478.478V45.974ZM507.416 45.974V46.974H508.431L508.416 45.9593L507.416 45.974ZM504.024 34.314L503.213 34.8988L503.219 34.9078L504.024 34.314ZM493.742 23.124C498.471 23.124 502.451 24.1508 505.728 26.1568L506.772 24.4511C503.123 22.2172 498.765 21.124 493.742 21.124V23.124ZM505.736 26.1615C509.092 28.1752 511.645 31.0253 513.402 34.7414L515.21 33.8866C513.292 29.8294 510.475 26.6728 506.765 24.4465L505.736 26.1615ZM513.412 34.7612C515.237 38.4123 516.168 42.7405 516.168 47.776H518.168C518.168 42.4941 517.191 37.8477 515.2 33.8668L513.412 34.7612ZM516.168 47.776V53.394H518.168V47.776H516.168ZM517.168 52.394H478.266V54.394H517.168V52.394ZM477.266 53.416C477.411 59.9931 479.077 65.1728 482.405 68.8037L483.879 67.4523C480.989 64.2992 479.404 59.6563 479.266 53.372L477.266 53.416ZM482.42 68.8196C485.83 72.3815 490.533 74.11 496.392 74.11V72.11C490.945 72.11 486.814 70.5171 483.864 67.4364L482.42 68.8196ZM496.392 74.11C500.052 74.11 503.31 73.7873 506.157 73.1304L505.707 71.1816C503.042 71.7967 499.94 72.11 496.392 72.11V74.11ZM506.175 73.1261C509.058 72.4052 512.006 71.3979 515.018 70.1071L514.23 68.2689C511.306 69.5221 508.459 70.4934 505.69 71.1859L506.175 73.1261ZM513.624 69.188V77.35H515.624V69.188H513.624ZM514.222 76.4344C511.384 77.6801 508.591 78.5755 505.842 79.1254L506.234 81.0866C509.138 80.5058 512.069 79.5639 515.026 78.2656L514.222 76.4344ZM505.819 79.1304C503.084 79.7458 499.804 80.06 495.968 80.06V82.06C499.905 82.06 503.339 81.7382 506.258 81.0816L505.819 79.1304ZM495.968 80.06C490.736 80.06 486.13 78.9941 482.123 76.8888L481.193 78.6592C485.525 80.9353 490.458 82.06 495.968 82.06V80.06ZM482.129 76.8921C478.213 74.799 475.136 71.6943 472.892 67.5462L471.132 68.4978C473.552 72.971 476.905 76.3677 481.187 78.6559L482.129 76.8921ZM472.901 67.5634C470.73 63.3575 469.62 58.1885 469.62 52.016H467.62C467.62 58.4221 468.772 63.9238 471.123 68.4806L472.901 67.5634ZM469.62 52.016C469.62 45.9042 470.627 40.7187 472.602 36.4281L470.786 35.5919C468.662 40.2053 467.62 45.6905 467.62 52.016H469.62ZM472.597 36.4399C474.646 32.1375 477.46 28.861 481.032 26.5697L479.952 24.8863C476.033 27.4004 472.982 30.9784 470.791 35.5801L472.597 36.4399ZM481.025 26.5742C484.664 24.2831 488.891 23.124 493.742 23.124V21.124C488.558 21.124 483.952 22.3676 479.959 24.8818L481.025 26.5742ZM493.636 28.756C488.945 28.756 485.126 30.294 482.294 33.432L483.778 34.772C486.176 32.1153 489.423 30.756 493.636 30.756V28.756ZM482.293 33.433C479.564 36.4653 477.991 40.6489 477.483 45.8772L479.473 46.0708C479.954 41.1231 481.42 37.3921 483.779 34.771L482.293 33.433ZM478.478 46.974H507.416V44.974H478.478V46.974ZM508.416 45.9593C508.343 41.0082 507.176 36.9005 504.829 33.7201L503.219 34.9078C505.253 37.6635 506.348 41.3292 506.416 45.9887L508.416 45.9593ZM504.835 33.7292C502.407 30.3617 498.598 28.756 493.636 28.756V30.756C498.144 30.756 501.259 32.189 503.213 34.8988L504.835 33.7292ZM562.478 76.82L561.91 75.9968L561.91 75.9968L562.478 76.82ZM535.66 80.106L535.441 81.0816L535.446 81.0827L535.66 80.106ZM528.134 77.456H527.134V78.0652L527.675 78.3446L528.134 77.456ZM528.134 68.976L528.581 68.0816L527.134 67.358V68.976H528.134ZM536.296 72.156L535.999 73.1109L536.012 73.1147L536.024 73.1183L536.296 72.156ZM556.436 71.308L557.01 72.1272L557.019 72.1209L557.027 72.1144L556.436 71.308ZM558.45 61.344L559.274 60.7775L559.274 60.7775L558.45 61.344ZM554.21 57.952L553.714 58.8202L553.72 58.824L553.727 58.8276L554.21 57.952ZM545.624 54.136L545.265 55.0694L545.271 55.0716L545.624 54.136ZM530.148 44.808L529.334 45.3892L529.334 45.3892L530.148 44.808ZM533.858 26.046L533.307 25.2116L533.3 25.2163L533.858 26.046ZM558.98 23.184L558.748 24.1568L558.762 24.16L558.775 24.1628L558.98 23.184ZM567.46 25.94L568.379 26.3339L568.763 25.4382L567.878 25.0313L567.46 25.94ZM564.28 33.36L563.899 34.2847L564.811 34.66L565.199 33.7539L564.28 33.36ZM556.754 30.816L556.493 31.7814L556.493 31.7814L556.754 30.816ZM539.9 31.664L540.419 32.5188L540.427 32.5136L539.9 31.664ZM538.31 40.674L537.534 41.3046L537.544 41.3169L537.554 41.3289L538.31 40.674ZM542.868 43.854L542.421 44.7484L542.439 44.7572L542.456 44.7654L542.868 43.854ZM551.56 47.458L551.195 48.389L551.203 48.3921L551.211 48.3951L551.56 47.458ZM560.782 51.592L560.296 52.4662L560.296 52.4662L560.782 51.592ZM566.612 56.786L565.776 57.334L565.78 57.3408L565.785 57.3475L566.612 56.786ZM567.626 64.312C567.626 69.5364 565.706 73.379 561.91 75.9968L563.046 77.6432C567.447 74.6077 569.626 70.1116 569.626 64.312H567.626ZM561.91 75.9968C558.032 78.6713 552.741 80.06 545.942 80.06V82.06C552.993 82.06 558.727 80.622 563.046 77.6432L561.91 75.9968ZM545.942 80.06C542.035 80.06 538.683 79.7457 535.874 79.1293L535.446 81.0827C538.432 81.7383 541.935 82.06 545.942 82.06V80.06ZM535.88 79.1304C533.122 78.5099 530.696 77.6529 528.593 76.5674L527.675 78.3446C529.954 79.5205 532.545 80.4301 535.441 81.0816L535.88 79.1304ZM529.134 77.456V68.976H527.134V77.456H529.134ZM527.687 69.8704C530.009 71.0315 532.783 72.1102 535.999 73.1109L536.593 71.2011C533.45 70.2231 530.782 69.1819 528.581 68.0816L527.687 69.8704ZM536.024 73.1183C539.362 74.0616 542.739 74.534 546.154 74.534V72.534C542.926 72.534 539.732 72.0878 536.568 71.1937L536.024 73.1183ZM546.154 74.534C550.946 74.534 554.631 73.7919 557.01 72.1272L555.863 70.4888C554.001 71.7921 550.831 72.534 546.154 72.534V74.534ZM557.027 72.1144C559.394 70.3788 560.616 68.0349 560.616 65.16H558.616C558.616 67.3731 557.718 69.1279 555.845 70.5016L557.027 72.1144ZM560.616 65.16C560.616 63.5508 560.17 62.0801 559.274 60.7775L557.626 61.9105C558.285 62.8692 558.616 63.9425 558.616 65.16H560.616ZM559.274 60.7775C558.367 59.4582 556.795 58.2361 554.693 57.0764L553.727 58.8276C555.724 59.9292 556.978 60.9684 557.626 61.9105L559.274 60.7775ZM554.706 57.0838C552.66 55.9144 549.741 54.6207 545.977 53.2004L545.271 55.0716C548.998 56.478 551.803 57.7282 553.714 58.8202L554.706 57.0838ZM545.983 53.2027C542.336 51.8001 539.233 50.404 536.666 49.0163L535.715 50.7757C538.377 52.2147 541.562 53.6453 545.265 55.0693L545.983 53.2027ZM536.666 49.0163C534.156 47.6596 532.269 46.057 530.962 44.2268L529.334 45.3892C530.854 47.5163 532.995 49.3058 535.715 50.7757L536.666 49.0163ZM530.962 44.2268C529.7 42.4596 529.028 40.1351 529.028 37.176H527.028C527.028 40.4356 527.77 43.1991 529.334 45.3892L530.962 44.2268ZM529.028 37.176C529.028 32.6932 530.814 29.2989 534.416 26.8757L533.3 25.2163C529.129 28.0224 527.028 32.0481 527.028 37.176H529.028ZM534.409 26.8803C538.156 24.4048 543.105 23.124 549.334 23.124V21.124C542.843 21.124 537.475 22.4578 533.307 25.2117L534.409 26.8803ZM549.334 23.124C552.729 23.124 555.866 23.4704 558.748 24.1568L559.212 22.2112C556.158 21.4842 552.864 21.124 549.334 21.124V23.124ZM558.775 24.1628C561.746 24.7846 564.501 25.6809 567.043 26.8487L567.878 25.0313C565.19 23.7964 562.291 22.8553 559.185 22.2052L558.775 24.1628ZM566.541 25.5461L563.361 32.9661L565.199 33.7539L568.379 26.3339L566.541 25.5461ZM564.661 32.4353C562.217 31.4292 559.669 30.5679 557.015 29.8506L556.493 31.7814C559.069 32.4775 561.537 33.3121 563.899 34.2847L564.661 32.4353ZM557.015 29.8506C554.314 29.1206 551.541 28.756 548.698 28.756V30.756C551.368 30.756 553.965 31.0981 556.493 31.7814L557.015 29.8506ZM548.698 28.756C544.795 28.756 541.647 29.4025 539.373 30.8144L540.427 32.5136C542.251 31.3815 544.969 30.756 548.698 30.756V28.756ZM539.381 30.8092C537.137 32.1718 535.932 34.1396 535.932 36.646H537.932C537.932 34.9124 538.706 33.5588 540.419 32.5188L539.381 30.8092ZM535.932 36.646C535.932 38.4138 536.46 39.9832 537.534 41.3046L539.086 40.0434C538.322 39.1034 537.932 37.9876 537.932 36.646H535.932ZM537.554 41.3289C538.599 42.5339 540.253 43.6646 542.421 44.7484L543.315 42.9596C541.243 41.9234 539.859 40.9341 539.066 40.0191L537.554 41.3289ZM542.456 44.7654C544.669 45.7645 547.584 46.9727 551.195 48.389L551.925 46.527C548.329 45.1166 545.449 43.9222 543.28 42.9426L542.456 44.7654ZM551.211 48.3951C554.782 49.7254 557.808 51.0835 560.296 52.4662L561.268 50.7178C558.668 49.2738 555.546 47.8759 551.909 46.5209L551.211 48.3951ZM560.296 52.4662C562.725 53.8155 564.537 55.4435 565.776 57.334L567.449 56.238C566.002 54.0298 563.927 52.1951 561.268 50.7178L560.296 52.4662ZM565.785 57.3475C566.988 59.1208 567.626 61.4194 567.626 64.312H569.626C569.626 61.1272 568.922 58.4086 567.44 56.2245L565.785 57.3475ZM590.835 3.36199L590.152 4.09305L590.177 4.11647L590.204 4.13811L590.835 3.36199ZM590.835 12.266L590.176 11.5134L590.164 11.524L590.152 11.5349L590.835 12.266ZM583.203 12.266L583.885 11.5349L583.885 11.5349L583.203 12.266ZM583.203 3.36199L583.858 4.11768L583.872 4.10562L583.885 4.09305L583.203 3.36199ZM591.683 23.184H592.683V22.184H591.683V23.184ZM591.683 80V81H592.683V80H591.683ZM582.355 80H581.355V81H582.355V80ZM582.355 23.184V22.184H581.355V23.184H582.355ZM587.125 2.87799C588.278 2.87799 589.272 3.27158 590.152 4.09305L591.517 2.63094C590.277 1.47374 588.799 0.877995 587.125 0.877995V2.87799ZM590.204 4.13811C591.017 4.79853 591.531 5.93741 591.531 7.81399H593.531C593.531 5.59191 592.914 3.7628 591.465 2.58588L590.204 4.13811ZM591.531 7.81399C591.531 9.60123 591.026 10.7696 590.176 11.5134L591.493 13.0186C592.905 11.7837 593.531 9.9841 593.531 7.81399H591.531ZM590.152 11.5349C589.272 12.3564 588.278 12.75 587.125 12.75V14.75C588.799 14.75 590.277 14.1542 591.517 12.997L590.152 11.5349ZM587.125 12.75C585.803 12.75 584.746 12.3383 583.885 11.5349L582.52 12.997C583.78 14.1724 585.337 14.75 587.125 14.75V12.75ZM583.885 11.5349C583.093 10.7959 582.613 9.62016 582.613 7.81399H580.613C580.613 9.96516 581.192 11.7574 582.52 12.997L583.885 11.5349ZM582.613 7.81399C582.613 5.91808 583.102 4.77225 583.858 4.11768L582.548 2.60631C581.183 3.78908 580.613 5.61124 580.613 7.81399H582.613ZM583.885 4.09305C584.746 3.28974 585.803 2.87799 587.125 2.87799V0.877995C585.337 0.877995 583.78 1.45558 582.52 2.63094L583.885 4.09305ZM590.683 23.184V80H592.683V23.184H590.683ZM591.683 79H582.355V81H591.683V79ZM583.355 80V23.184H581.355V80H583.355ZM582.355 24.184H591.683V22.184H582.355V24.184ZM639.893 24.244L639.463 25.1469L639.471 25.1507L639.893 24.244ZM647.631 30.71L646.824 31.3005L647.123 31.71H647.631V30.71ZM648.161 30.71V31.71H649.006L649.147 30.8766L648.161 30.71ZM649.433 23.184V22.184H648.588L648.447 23.0173L649.433 23.184ZM656.853 23.184H657.853V22.184H656.853V23.184ZM650.599 99.292L649.898 98.5789L649.892 98.5849L650.599 99.292ZM610.955 101.836H609.955V102.481L610.542 102.747L610.955 101.836ZM610.955 93.25L611.424 92.367L609.955 91.5858V93.25H610.955ZM643.391 93.356L642.684 92.6489L642.675 92.6577L642.666 92.6668L643.391 93.356ZM647.737 75.866L648.736 75.9114L648.736 75.9094L647.737 75.866ZM647.949 72.474L648.943 72.5844L649.066 71.474H647.949V72.474ZM647.525 72.474V71.474H646.99L646.693 71.9193L647.525 72.474ZM612.651 73.322L611.868 73.9441L611.873 73.9506L612.651 73.322ZM612.651 30.18L611.861 29.5668L611.86 29.5682L612.651 30.18ZM620.071 35.692L620.891 36.2644L620.896 36.2572L620.071 35.692ZM619.965 67.916L619.138 68.4779L619.144 68.4869L619.15 68.4958L619.965 67.916ZM643.815 68.87L644.573 69.5223L644.58 69.5136L643.815 68.87ZM643.709 35.056L642.925 35.6767L642.931 35.6847L643.709 35.056ZM629.823 23.124C633.44 23.124 636.647 23.8058 639.463 25.1469L640.323 23.3411C637.203 21.8555 633.696 21.124 629.823 21.124V23.124ZM639.471 25.1507C642.346 26.4878 644.796 28.5294 646.824 31.3005L648.438 30.1195C646.226 27.0959 643.517 24.8269 640.315 23.3373L639.471 25.1507ZM647.631 31.71H648.161V29.71H647.631V31.71ZM649.147 30.8766L650.419 23.3506L648.447 23.0173L647.175 30.5433L649.147 30.8766ZM649.433 24.184H656.853V22.184H649.433V24.184ZM655.853 23.184V80.954H657.853V23.184H655.853ZM655.853 80.954C655.853 88.9192 653.811 94.7317 649.898 98.5789L651.3 100.005C655.725 95.6549 657.853 89.2421 657.853 80.954H655.853ZM649.892 98.5849C646.056 102.42 639.971 104.44 631.413 104.44V106.44C640.239 106.44 646.944 104.361 651.306 99.9991L649.892 98.5849ZM631.413 104.44C623.16 104.44 616.495 103.249 611.368 100.925L610.542 102.747C616.015 105.228 622.989 106.44 631.413 106.44V104.44ZM611.955 101.836V93.25H609.955V101.836H611.955ZM610.485 94.133C616.252 97.199 623.422 98.702 631.943 98.702V96.702C623.645 96.702 616.823 95.237 611.424 92.367L610.485 94.133ZM631.943 98.702C637.028 98.702 641.13 97.1833 644.115 94.0452L642.666 92.6668C640.139 95.3233 636.609 96.702 631.943 96.702V98.702ZM644.098 94.0631C647.155 91.0065 648.631 86.8411 648.631 81.696H646.631C646.631 86.4442 645.28 90.0522 642.684 92.6489L644.098 94.0631ZM648.631 81.696V79.47H646.631V81.696H648.631ZM648.631 79.47C648.631 78.6448 648.665 77.4612 648.736 75.9114L646.738 75.8206C646.667 77.3802 646.631 78.5992 646.631 79.47H648.631ZM648.736 75.9094C648.807 74.2827 648.876 73.183 648.943 72.5844L646.955 72.3636C646.88 73.037 646.808 74.1986 646.738 75.8226L648.736 75.9094ZM647.949 71.474H647.525V73.474H647.949V71.474ZM646.693 71.9193C643.093 77.3197 637.568 80.06 629.929 80.06V82.06C638.119 82.06 644.325 79.0763 648.357 73.0287L646.693 71.9193ZM629.929 80.06C622.844 80.06 617.386 77.5898 613.429 72.6934L611.873 73.9506C616.254 79.3715 622.315 82.06 629.929 82.06V80.06ZM613.434 72.6999C609.523 67.7775 607.503 60.8192 607.503 51.698H605.503C605.503 61.0915 607.581 68.5491 611.868 73.9441L613.434 72.6999ZM607.503 51.698C607.503 42.7972 609.519 35.8642 613.442 30.7917L611.86 29.5682C607.585 35.0958 605.503 42.5082 605.503 51.698H607.503ZM613.441 30.7932C617.406 25.6858 622.828 23.124 629.823 23.124V21.124C622.26 21.124 616.235 23.9329 611.861 29.5668L613.441 30.7932ZM631.095 28.968C626.04 28.968 622.052 31.0311 619.246 35.1268L620.896 36.2572C623.319 32.7209 626.681 30.968 631.095 30.968V28.968ZM619.251 35.1196C616.472 39.1004 615.149 44.705 615.149 51.804H617.149C617.149 44.911 618.441 39.7743 620.891 36.2644L619.251 35.1196ZM615.149 51.804C615.149 58.8989 616.435 64.4991 619.138 68.4779L620.792 67.3541C618.407 63.8423 617.149 58.7011 617.149 51.804H615.149ZM619.15 68.4958C621.973 72.4625 626.073 74.428 631.307 74.428V72.428C626.647 72.428 623.186 70.7188 620.78 67.3362L619.15 68.4958ZM631.307 74.428C637.193 74.428 641.698 72.8634 644.573 69.5222L643.057 68.2178C640.702 70.9539 636.868 72.428 631.307 72.428V74.428ZM644.58 69.5136C647.42 66.1361 648.737 60.8656 648.737 53.924H646.737C646.737 60.6918 645.439 65.3853 643.049 68.2264L644.58 69.5136ZM648.737 53.924V51.698H646.737V53.924H648.737ZM648.737 51.698C648.737 43.8615 647.393 38.0228 644.486 34.4273L642.931 35.6847C645.395 38.7319 646.737 43.9878 646.737 51.698H648.737ZM644.493 34.4353C641.56 30.7312 637.018 28.968 631.095 28.968V30.968C636.62 30.968 640.487 32.5968 642.925 35.6767L644.493 34.4353ZM717.616 27.106L716.923 27.8277L716.931 27.8351L717.616 27.106ZM722.81 80V81H723.81V80H722.81ZM713.588 80H712.588V81H713.588V80ZM687.83 35.268L688.657 35.8303L688.657 35.8303L687.83 35.268ZM684.226 80V81H685.226V80H684.226ZM674.898 80H673.898V81H674.898V80ZM674.898 23.184V22.184H673.898V23.184H674.898ZM682.424 23.184L683.408 23.0087L683.261 22.184H682.424V23.184ZM683.802 30.922L682.817 31.0973L682.964 31.922H683.802V30.922ZM684.332 30.922V31.922H684.889L685.182 31.4484L684.332 30.922ZM691.964 24.35L692.362 25.2671L692.371 25.2635L692.379 25.2597L691.964 24.35ZM702.246 23.124C708.879 23.124 713.712 24.7475 716.923 27.8277L718.308 26.3843C714.594 22.8218 709.18 21.124 702.246 21.124V23.124ZM716.931 27.8351C720.105 30.8145 721.81 35.7839 721.81 43.006H723.81C723.81 35.5295 722.052 29.8988 718.3 26.3769L716.931 27.8351ZM721.81 43.006V80H723.81V43.006H721.81ZM722.81 79H713.588V81H722.81V79ZM714.588 80V43.642H712.588V80H714.588ZM714.588 43.642C714.588 38.9471 713.497 35.2396 711.14 32.7054C708.77 30.1575 705.281 28.968 700.868 28.968V30.968C704.934 30.968 707.806 32.0575 709.676 34.0676C711.558 36.0913 712.588 39.2209 712.588 43.642H714.588ZM700.868 28.968C694.413 28.968 689.669 30.7851 687.003 34.7057L688.657 35.8303C690.796 32.6843 694.743 30.968 700.868 30.968V28.968ZM687.003 34.7057C684.441 38.4734 683.226 43.7919 683.226 50.532H685.226C685.226 43.9868 686.413 39.1292 688.657 35.8303L687.003 34.7057ZM683.226 50.532V80H685.226V50.532H683.226ZM684.226 79H674.898V81H684.226V79ZM675.898 80V23.184H673.898V80H675.898ZM674.898 24.184H682.424V22.184H674.898V24.184ZM681.439 23.3593L682.817 31.0973L684.786 30.7467L683.408 23.0087L681.439 23.3593ZM683.802 31.922H684.332V29.922H683.802V31.922ZM685.182 31.4484C686.91 28.6564 689.295 26.6005 692.362 25.2671L691.565 23.4329C688.131 24.9261 685.428 27.2516 683.481 30.3956L685.182 31.4484ZM692.379 25.2597C695.498 23.8357 698.784 23.124 702.246 23.124V21.124C698.5 21.124 694.931 21.8963 691.548 23.4403L692.379 25.2597Z" fill="#BD8966"/>
</svg>
