<svg width="151" height="139" viewBox="0 0 151 139" fill="none" xmlns="http://www.w3.org/2000/svg">
<path d="M34.253 138.503C26.571 138.503 20.225 136.777 15.215 133.326C10.3163 129.875 6.64233 125.143 4.193 119.131C1.855 113.119 0.686 106.272 0.686 98.59V40.307C0.686 32.4023 1.855 25.4997 4.193 19.599C6.531 13.587 10.1493 8.91099 15.048 5.57099C20.058 2.23099 26.4597 0.560995 34.253 0.560995C42.0463 0.560995 48.3923 2.23099 53.291 5.57099C58.1897 8.91099 61.808 13.587 64.146 19.599C66.484 25.4997 67.653 32.4023 67.653 40.307V98.59C67.653 106.383 66.4283 113.286 63.979 119.298C61.641 125.31 58.0227 130.042 53.124 133.493C48.2253 136.833 41.935 138.503 34.253 138.503ZM34.253 123.807C38.4837 123.807 41.6567 122.582 43.772 120.133C45.9987 117.684 47.5017 114.566 48.281 110.781C49.1717 106.884 49.617 102.876 49.617 98.757V40.14C49.617 35.798 49.2273 31.7343 48.448 27.949C47.6687 24.0523 46.1657 20.935 43.939 18.597C41.8237 16.259 38.595 15.09 34.253 15.09C29.911 15.09 26.6267 16.259 24.4 18.597C22.1733 20.935 20.6703 24.0523 19.891 27.949C19.1117 31.7343 18.722 35.798 18.722 40.14V98.757C18.722 102.876 19.1117 106.884 19.891 110.781C20.7817 114.566 22.3403 117.684 24.567 120.133C26.905 122.582 30.1337 123.807 34.253 123.807ZM117.018 138.503C109.67 138.503 103.547 137.111 98.6485 134.328C93.7498 131.545 90.0758 127.537 87.6265 122.304C85.1771 117.071 83.9525 110.892 83.9525 103.767V99.258H101.654C101.654 99.7033 101.654 100.204 101.654 100.761C101.654 101.206 101.654 101.707 101.654 102.264C101.766 106.272 102.211 109.89 102.99 113.119C103.881 116.348 105.384 118.908 107.499 120.801C109.726 122.694 112.899 123.64 117.018 123.64C121.36 123.64 124.645 122.638 126.871 120.634C129.098 118.519 130.601 115.568 131.38 111.783C132.16 107.998 132.549 103.656 132.549 98.757C132.549 91.6317 131.213 85.8423 128.541 81.389C125.981 76.8243 121.416 74.3193 114.847 73.874C114.513 73.7627 114.068 73.707 113.511 73.707C113.066 73.707 112.676 73.707 112.342 73.707V55.838C112.676 55.838 113.066 55.838 113.511 55.838C113.957 55.838 114.346 55.838 114.68 55.838C121.026 55.6153 125.591 53.9453 128.374 50.828C131.158 47.7107 132.549 42.5337 132.549 35.297C132.549 29.1737 131.492 24.275 129.376 20.601C127.372 16.927 123.309 15.09 117.185 15.09C111.062 15.09 106.998 17.1497 104.994 21.269C102.99 25.277 101.877 30.454 101.654 36.8C101.654 37.2453 101.654 37.7463 101.654 38.303C101.654 38.7483 101.654 39.1937 101.654 39.639H83.9525V35.13C83.9525 27.8933 85.1771 21.7143 87.6265 16.593C90.0758 11.4717 93.7498 7.51933 98.6485 4.73599C103.658 1.95266 109.837 0.560995 117.185 0.560995C124.645 0.560995 130.824 1.95266 135.722 4.73599C140.621 7.51933 144.295 11.5273 146.744 16.76C149.194 21.8813 150.418 28.0603 150.418 35.297C150.418 43.4243 148.637 49.9373 145.074 54.836C141.623 59.7347 136.947 63.0747 131.046 64.856C135.166 66.0807 138.617 68.196 141.4 71.202C144.295 74.208 146.522 78.049 148.08 82.725C149.639 87.2897 150.418 92.6337 150.418 98.757C150.418 106.773 149.305 113.787 147.078 119.799C144.852 125.7 141.289 130.32 136.39 133.66C131.492 136.889 125.034 138.503 117.018 138.503Z" fill="#FFD601" fill-opacity="0.5"/>
</svg>
