<svg width="138" height="139" viewBox="0 0 138 139" fill="none" xmlns="http://www.w3.org/2000/svg">
<path d="M23.557 137V25.11C23.4457 25.2213 22.1653 25.5553 19.716 26.112C17.378 26.6687 14.706 27.2253 11.7 27.782C8.694 28.3387 6.022 28.8397 3.684 29.285C1.346 29.7303 0.121334 29.953 0.0100002 29.953V16.426C1.90267 15.9807 4.07367 15.3683 6.523 14.589C9.08367 13.8097 11.6443 12.8633 14.205 11.75C16.877 10.6367 19.382 9.24499 21.72 7.57499C24.1693 5.905 26.229 3.95666 27.899 1.72999H41.426V137H23.557ZM104.466 138.503C96.7839 138.503 90.4379 136.777 85.4279 133.326C80.5292 129.875 76.8552 125.143 74.4059 119.131C72.0679 113.119 70.8989 106.272 70.8989 98.59V40.307C70.8989 32.4023 72.0679 25.4997 74.4059 19.599C76.7439 13.587 80.3622 8.91099 85.2609 5.57099C90.2709 2.23099 96.6726 0.560995 104.466 0.560995C112.259 0.560995 118.605 2.23099 123.504 5.57099C128.403 8.91099 132.021 13.587 134.359 19.599C136.697 25.4997 137.866 32.4023 137.866 40.307V98.59C137.866 106.383 136.641 113.286 134.192 119.298C131.854 125.31 128.236 130.042 123.337 133.493C118.438 136.833 112.148 138.503 104.466 138.503ZM104.466 123.807C108.697 123.807 111.87 122.582 113.985 120.133C116.212 117.684 117.715 114.566 118.494 110.781C119.385 106.884 119.83 102.876 119.83 98.757V40.14C119.83 35.798 119.44 31.7343 118.661 27.949C117.882 24.0523 116.379 20.935 114.152 18.597C112.037 16.259 108.808 15.09 104.466 15.09C100.124 15.09 96.8396 16.259 94.6129 18.597C92.3862 20.935 90.8832 24.0523 90.1039 27.949C89.3246 31.7343 88.9349 35.798 88.9349 40.14V98.757C88.9349 102.876 89.3246 106.884 90.1039 110.781C90.9946 114.566 92.5532 117.684 94.7799 120.133C97.1179 122.582 100.347 123.807 104.466 123.807Z" fill="#FFD601" fill-opacity="0.5"/>
</svg>
