<svg width="154" height="139" viewBox="0 0 154 139" fill="none" xmlns="http://www.w3.org/2000/svg">
<path d="M34.253 138.503C26.571 138.503 20.225 136.777 15.215 133.326C10.3163 129.875 6.64233 125.143 4.193 119.131C1.855 113.119 0.686 106.272 0.686 98.59V40.307C0.686 32.4023 1.855 25.4997 4.193 19.599C6.531 13.587 10.1493 8.91099 15.048 5.57099C20.058 2.23099 26.4597 0.560995 34.253 0.560995C42.0463 0.560995 48.3923 2.23099 53.291 5.57099C58.1897 8.91099 61.808 13.587 64.146 19.599C66.484 25.4997 67.653 32.4023 67.653 40.307V98.59C67.653 106.383 66.4283 113.286 63.979 119.298C61.641 125.31 58.0227 130.042 53.124 133.493C48.2253 136.833 41.935 138.503 34.253 138.503ZM34.253 123.807C38.4837 123.807 41.6567 122.582 43.772 120.133C45.9987 117.684 47.5017 114.566 48.281 110.781C49.1717 106.884 49.617 102.876 49.617 98.757V40.14C49.617 35.798 49.2273 31.7343 48.448 27.949C47.6687 24.0523 46.1657 20.935 43.939 18.597C41.8237 16.259 38.595 15.09 34.253 15.09C29.911 15.09 26.6267 16.259 24.4 18.597C22.1733 20.935 20.6703 24.0523 19.891 27.949C19.1117 31.7343 18.722 35.798 18.722 40.14V98.757C18.722 102.876 19.1117 106.884 19.891 110.781C20.7817 114.566 22.3403 117.684 24.567 120.133C26.905 122.582 30.1337 123.807 34.253 123.807ZM120.191 138.503C112.398 138.503 106.052 136.555 101.153 132.658C96.2548 128.65 92.6365 123.306 90.2985 116.626C88.0718 109.835 86.9585 102.32 86.9585 94.081V48.49C86.9585 39.6947 87.9605 31.6787 89.9645 24.442C91.9685 17.2053 95.3641 11.416 100.151 7.07399C105.05 2.73199 111.73 0.560995 120.191 0.560995C127.205 0.560995 133.106 1.84133 137.893 4.402C142.792 6.96266 146.522 10.6923 149.082 15.591C151.754 20.4897 153.146 26.446 153.257 33.46C153.257 33.6827 153.257 34.0167 153.257 34.462C153.369 34.796 153.424 35.13 153.424 35.464H135.388C135.388 28.8953 134.331 23.8853 132.215 20.434C130.1 16.9827 126.092 15.257 120.191 15.257C116.963 15.257 114.179 16.3147 111.841 18.43C109.503 20.434 107.722 23.5513 106.497 27.782C105.384 32.0127 104.827 37.468 104.827 44.148V64.689C106.609 61.9057 109.114 59.679 112.342 58.009C115.682 56.2277 119.746 55.337 124.533 55.337C131.993 55.337 137.838 56.9513 142.068 60.18C146.299 63.4087 149.305 67.9733 151.086 73.874C152.868 79.6633 153.758 86.5103 153.758 94.415C153.758 102.542 152.645 109.946 150.418 116.626C148.192 123.306 144.629 128.65 139.73 132.658C134.832 136.555 128.319 138.503 120.191 138.503ZM120.191 123.64C124.199 123.64 127.317 122.527 129.543 120.3C131.77 117.962 133.329 114.9 134.219 111.115C135.221 107.33 135.722 103.21 135.722 98.757C135.722 93.413 135.444 88.4587 134.887 83.894C134.442 79.3293 133.162 75.711 131.046 73.039C128.931 70.2557 125.313 68.864 120.191 68.864C117.742 68.864 115.515 69.3093 113.511 70.2C111.507 71.0907 109.782 72.2597 108.334 73.707C106.887 75.043 105.718 76.4903 104.827 78.049V98.256C104.827 102.821 105.273 107.051 106.163 110.948C107.165 114.845 108.78 117.962 111.006 120.3C113.233 122.527 116.295 123.64 120.191 123.64Z" fill="#FFD601" fill-opacity="0.5"/>
</svg>
