<svg width="152" height="139" viewBox="0 0 152 139" fill="none" xmlns="http://www.w3.org/2000/svg">
<path d="M34.253 138.503C26.571 138.503 20.225 136.777 15.215 133.326C10.3163 129.875 6.64233 125.143 4.193 119.131C1.855 113.119 0.686 106.272 0.686 98.59V40.307C0.686 32.4023 1.855 25.4997 4.193 19.599C6.531 13.587 10.1493 8.91099 15.048 5.57099C20.058 2.23099 26.4597 0.560995 34.253 0.560995C42.0463 0.560995 48.3923 2.23099 53.291 5.57099C58.1897 8.91099 61.808 13.587 64.146 19.599C66.484 25.4997 67.653 32.4023 67.653 40.307V98.59C67.653 106.383 66.4283 113.286 63.979 119.298C61.641 125.31 58.0227 130.042 53.124 133.493C48.2253 136.833 41.935 138.503 34.253 138.503ZM34.253 123.807C38.4837 123.807 41.6567 122.582 43.772 120.133C45.9987 117.684 47.5017 114.566 48.281 110.781C49.1717 106.884 49.617 102.876 49.617 98.757V40.14C49.617 35.798 49.2273 31.7343 48.448 27.949C47.6687 24.0523 46.1657 20.935 43.939 18.597C41.8237 16.259 38.595 15.09 34.253 15.09C29.911 15.09 26.6267 16.259 24.4 18.597C22.1733 20.935 20.6703 24.0523 19.891 27.949C19.1117 31.7343 18.722 35.798 18.722 40.14V98.757C18.722 102.876 19.1117 106.884 19.891 110.781C20.7817 114.566 22.3403 117.684 24.567 120.133C26.905 122.582 30.1337 123.807 34.253 123.807ZM118.187 138.503C111.173 138.503 105.161 137.223 100.151 134.662C95.2528 131.99 91.5231 128.149 88.9625 123.139C86.4018 118.129 85.0658 112.061 84.9545 104.936C84.9545 104.713 84.9545 104.491 84.9545 104.268C84.9545 103.934 84.9545 103.656 84.9545 103.433H102.823C102.823 109.89 103.881 114.9 105.996 118.463C108.112 121.914 112.231 123.64 118.354 123.64C121.694 123.64 124.478 122.638 126.704 120.634C128.931 118.519 130.601 115.346 131.714 111.115C132.828 106.773 133.384 101.318 133.384 94.749V74.208C131.714 76.9913 129.209 79.2737 125.869 81.055C122.641 82.725 118.577 83.56 113.678 83.56C106.219 83.56 100.374 81.9457 96.1435 78.717C91.9128 75.377 88.9068 70.8123 87.1255 65.023C85.4555 59.1223 84.6205 52.2753 84.6205 44.482C84.6205 36.2433 85.7338 28.8397 87.9605 22.271C90.1871 15.591 93.7498 10.3027 98.6485 6.40599C103.658 2.50933 110.171 0.560995 118.187 0.560995C125.981 0.560995 132.327 2.565 137.225 6.573C142.124 10.4697 145.687 15.758 147.913 22.438C150.251 29.118 151.42 36.5773 151.42 44.816V90.24C151.42 98.924 150.418 106.94 148.414 114.288C146.41 121.636 143.015 127.537 138.227 131.99C133.44 136.332 126.76 138.503 118.187 138.503ZM118.187 70.033C122.084 70.033 125.257 69.0867 127.706 67.194C130.156 65.19 132.048 63.019 133.384 60.681V40.641C133.384 35.965 132.939 31.7343 132.048 27.949C131.158 24.0523 129.599 20.9907 127.372 18.764C125.146 16.426 122.084 15.257 118.187 15.257C114.291 15.257 111.173 16.426 108.835 18.764C106.609 21.102 104.994 24.1637 103.992 27.949C103.102 31.623 102.656 35.6867 102.656 40.14C102.656 45.484 102.879 50.4383 103.324 55.003C103.881 59.5677 105.217 63.2417 107.332 66.025C109.559 68.697 113.177 70.033 118.187 70.033Z" fill="#FFD601" fill-opacity="0.5"/>
</svg>
