<svg width="153" height="139" viewBox="0 0 153 139" fill="none" xmlns="http://www.w3.org/2000/svg">
<path d="M34.253 138.503C26.571 138.503 20.225 136.777 15.215 133.326C10.3163 129.875 6.64233 125.143 4.193 119.131C1.855 113.119 0.686 106.272 0.686 98.59V40.307C0.686 32.4023 1.855 25.4997 4.193 19.599C6.531 13.587 10.1493 8.91099 15.048 5.57099C20.058 2.23099 26.4597 0.560995 34.253 0.560995C42.0463 0.560995 48.3923 2.23099 53.291 5.57099C58.1897 8.91099 61.808 13.587 64.146 19.599C66.484 25.4997 67.653 32.4023 67.653 40.307V98.59C67.653 106.383 66.4283 113.286 63.979 119.298C61.641 125.31 58.0227 130.042 53.124 133.493C48.2253 136.833 41.935 138.503 34.253 138.503ZM34.253 123.807C38.4837 123.807 41.6567 122.582 43.772 120.133C45.9987 117.684 47.5017 114.566 48.281 110.781C49.1717 106.884 49.617 102.876 49.617 98.757V40.14C49.617 35.798 49.2273 31.7343 48.448 27.949C47.6687 24.0523 46.1657 20.935 43.939 18.597C41.8237 16.259 38.595 15.09 34.253 15.09C29.911 15.09 26.6267 16.259 24.4 18.597C22.1733 20.935 20.6703 24.0523 19.891 27.949C19.1117 31.7343 18.722 35.798 18.722 40.14V98.757C18.722 102.876 19.1117 106.884 19.891 110.781C20.7817 114.566 22.3403 117.684 24.567 120.133C26.905 122.582 30.1337 123.807 34.253 123.807ZM119.022 138.503C110.895 138.503 104.382 136.889 99.4835 133.66C94.5848 130.431 91.0221 125.867 88.7955 119.966C86.6801 113.954 85.6225 106.94 85.6225 98.924C85.6225 94.3593 86.0121 90.3513 86.7915 86.9C87.5708 83.4487 88.6841 80.4427 90.1315 77.882C91.6901 75.21 93.4715 72.9277 95.4755 71.035C97.5908 69.031 99.8731 67.2497 102.322 65.691C97.8691 62.685 94.2508 58.7883 91.4675 54.001C88.6841 49.1023 87.2925 42.9233 87.2925 35.464C87.2925 28.3387 88.4058 22.1597 90.6325 16.927C92.8591 11.6943 96.3105 7.68633 100.986 4.903C105.774 2.00833 111.786 0.560995 119.022 0.560995C126.259 0.560995 132.16 2.00833 136.724 4.903C141.4 7.68633 144.852 11.6943 147.078 16.927C149.305 22.1597 150.418 28.3387 150.418 35.464C150.418 43.0347 149.027 49.2137 146.243 54.001C143.571 58.7883 139.953 62.685 135.388 65.691C137.838 67.2497 140.064 69.031 142.068 71.035C144.184 72.9277 145.965 75.21 147.412 77.882C148.971 80.4427 150.14 83.4487 150.919 86.9C151.81 90.3513 152.255 94.3593 152.255 98.924C152.255 106.94 151.142 113.954 148.915 119.966C146.8 125.867 143.293 130.431 138.394 133.66C133.607 136.889 127.15 138.503 119.022 138.503ZM119.022 124.308C123.364 124.308 126.704 123.195 129.042 120.968C131.38 118.741 132.939 115.735 133.718 111.95C134.609 108.165 135.054 103.934 135.054 99.258C135.054 95.0273 134.553 91.075 133.551 87.401C132.661 83.6157 131.046 80.554 128.708 78.216C126.37 75.7667 123.142 74.542 119.022 74.542C114.903 74.542 111.619 75.711 109.169 78.049C106.831 80.387 105.161 83.4487 104.159 87.234C103.157 90.908 102.656 94.916 102.656 99.258C102.656 103.934 103.102 108.165 103.992 111.95C104.883 115.735 106.497 118.741 108.835 120.968C111.285 123.195 114.68 124.308 119.022 124.308ZM119.022 57.508C122.808 57.3967 125.647 56.2277 127.539 54.001C129.543 51.7743 130.935 48.9353 131.714 45.484C132.494 41.9213 132.883 38.2473 132.883 34.462C132.883 28.8953 131.881 24.1637 129.877 20.267C127.873 16.3703 124.255 14.422 119.022 14.422C113.79 14.422 110.116 16.3703 108 20.267C105.885 24.1637 104.827 28.8953 104.827 34.462C104.827 38.2473 105.217 41.9213 105.996 45.484C106.776 48.9353 108.167 51.7743 110.171 54.001C112.287 56.2277 115.237 57.3967 119.022 57.508Z" fill="#FFD601" fill-opacity="0.5"/>
</svg>
