<svg width="152" height="139" viewBox="0 0 152 139" fill="none" xmlns="http://www.w3.org/2000/svg">
<path d="M34.253 138.503C26.571 138.503 20.225 136.777 15.215 133.326C10.3163 129.875 6.64233 125.143 4.193 119.131C1.855 113.119 0.686 106.272 0.686 98.59V40.307C0.686 32.4023 1.855 25.4997 4.193 19.599C6.531 13.587 10.1493 8.91099 15.048 5.57099C20.058 2.23099 26.4597 0.560995 34.253 0.560995C42.0463 0.560995 48.3923 2.23099 53.291 5.57099C58.1897 8.91099 61.808 13.587 64.146 19.599C66.484 25.4997 67.653 32.4023 67.653 40.307V98.59C67.653 106.383 66.4283 113.286 63.979 119.298C61.641 125.31 58.0227 130.042 53.124 133.493C48.2253 136.833 41.935 138.503 34.253 138.503ZM34.253 123.807C38.4837 123.807 41.6567 122.582 43.772 120.133C45.9987 117.684 47.5017 114.566 48.281 110.781C49.1717 106.884 49.617 102.876 49.617 98.757V40.14C49.617 35.798 49.2273 31.7343 48.448 27.949C47.6687 24.0523 46.1657 20.935 43.939 18.597C41.8237 16.259 38.595 15.09 34.253 15.09C29.911 15.09 26.6267 16.259 24.4 18.597C22.1733 20.935 20.6703 24.0523 19.891 27.949C19.1117 31.7343 18.722 35.798 18.722 40.14V98.757C18.722 102.876 19.1117 106.884 19.891 110.781C20.7817 114.566 22.3403 117.684 24.567 120.133C26.905 122.582 30.1337 123.807 34.253 123.807ZM84.1195 137V124.308L118.521 70.701C121.082 66.693 123.42 62.9633 125.535 59.512C127.762 56.0607 129.543 52.4423 130.879 48.657C132.327 44.7603 133.05 40.307 133.05 35.297C133.05 29.0623 132.048 24.1637 130.044 20.601C128.04 17.0383 124.533 15.257 119.523 15.257C115.293 15.257 112.008 16.426 109.67 18.764C107.332 21.102 105.718 24.1637 104.827 27.949C103.937 31.7343 103.491 35.798 103.491 40.14V44.649H85.6225V39.973C85.6225 31.8457 86.6801 24.8873 88.7955 19.098C91.0221 13.1973 94.5291 8.63266 99.3165 5.40399C104.215 2.17533 110.672 0.560995 118.688 0.560995C129.599 0.560995 137.726 3.67833 143.07 9.91299C148.414 16.0363 151.086 24.5533 151.086 35.464C151.086 41.2533 150.363 46.319 148.915 50.661C147.579 55.003 145.798 59.0667 143.571 62.852C141.345 66.6373 138.895 70.534 136.223 74.542L105.161 121.97H147.913V137H84.1195Z" fill="#FFD601" fill-opacity="0.5"/>
</svg>
