<svg width="152" height="139" viewBox="0 0 152 139" fill="none" xmlns="http://www.w3.org/2000/svg">
<path d="M34.253 138.503C26.571 138.503 20.225 136.777 15.215 133.326C10.3163 129.875 6.64233 125.143 4.193 119.131C1.855 113.119 0.686 106.272 0.686 98.59V40.307C0.686 32.4023 1.855 25.4997 4.193 19.599C6.531 13.587 10.1493 8.91099 15.048 5.57099C20.058 2.23099 26.4597 0.560995 34.253 0.560995C42.0463 0.560995 48.3923 2.23099 53.291 5.57099C58.1897 8.91099 61.808 13.587 64.146 19.599C66.484 25.4997 67.653 32.4023 67.653 40.307V98.59C67.653 106.383 66.4283 113.286 63.979 119.298C61.641 125.31 58.0227 130.042 53.124 133.493C48.2253 136.833 41.935 138.503 34.253 138.503ZM34.253 123.807C38.4837 123.807 41.6567 122.582 43.772 120.133C45.9987 117.684 47.5017 114.566 48.281 110.781C49.1717 106.884 49.617 102.876 49.617 98.757V40.14C49.617 35.798 49.2273 31.7343 48.448 27.949C47.6687 24.0523 46.1657 20.935 43.939 18.597C41.8237 16.259 38.595 15.09 34.253 15.09C29.911 15.09 26.6267 16.259 24.4 18.597C22.1733 20.935 20.6703 24.0523 19.891 27.949C19.1117 31.7343 18.722 35.798 18.722 40.14V98.757C18.722 102.876 19.1117 106.884 19.891 110.781C20.7817 114.566 22.3403 117.684 24.567 120.133C26.905 122.582 30.1337 123.807 34.253 123.807ZM117.853 138.336C109.726 138.336 103.269 136.777 98.4815 133.66C93.6941 130.543 90.2428 126.034 88.1275 120.133C86.1235 114.232 85.1215 107.218 85.1215 99.091H102.99C102.99 103.099 103.324 107.051 103.992 110.948C104.66 114.733 106.052 117.906 108.167 120.467C110.394 122.916 113.734 124.141 118.187 124.141C123.086 124.141 126.593 122.749 128.708 119.966C130.824 117.071 132.16 113.23 132.716 108.443C133.273 103.544 133.551 98.0333 133.551 91.91C133.551 85.7867 133.217 80.6097 132.549 76.379C131.881 72.037 130.49 68.7527 128.374 66.526C126.259 64.188 122.919 63.019 118.354 63.019C114.68 63.019 111.563 64.188 109.002 66.526C106.442 68.7527 104.549 71.3133 103.324 74.208H88.1275V1.72999H146.41V19.599H104.326L103.157 57.007C105.384 54.669 108.112 52.832 111.34 51.496C114.68 50.16 118.466 49.492 122.696 49.492C130.044 49.492 135.778 51.2177 139.897 54.669C144.128 58.1203 147.078 62.852 148.748 68.864C150.53 74.876 151.42 81.7787 151.42 89.572C151.42 96.4747 150.919 102.932 149.917 108.944C148.915 114.845 147.134 120.022 144.573 124.475C142.124 128.817 138.728 132.213 134.386 134.662C130.044 137.111 124.533 138.336 117.853 138.336Z" fill="#FFD601" fill-opacity="0.5"/>
</svg>
