<svg width="134" height="139" viewBox="0 0 134 139" fill="none" xmlns="http://www.w3.org/2000/svg">
<path d="M34.253 138.503C26.571 138.503 20.225 136.777 15.215 133.326C10.3163 129.875 6.64233 125.143 4.193 119.131C1.855 113.119 0.686 106.272 0.686 98.59V40.307C0.686 32.4023 1.855 25.4997 4.193 19.599C6.531 13.587 10.1493 8.91099 15.048 5.57099C20.058 2.23099 26.4597 0.560995 34.253 0.560995C42.0463 0.560995 48.3923 2.23099 53.291 5.57099C58.1897 8.91099 61.808 13.587 64.146 19.599C66.484 25.4997 67.653 32.4023 67.653 40.307V98.59C67.653 106.383 66.4283 113.286 63.979 119.298C61.641 125.31 58.0227 130.042 53.124 133.493C48.2253 136.833 41.935 138.503 34.253 138.503ZM34.253 123.807C38.4837 123.807 41.6567 122.582 43.772 120.133C45.9987 117.684 47.5017 114.566 48.281 110.781C49.1717 106.884 49.617 102.876 49.617 98.757V40.14C49.617 35.798 49.2273 31.7343 48.448 27.949C47.6687 24.0523 46.1657 20.935 43.939 18.597C41.8237 16.259 38.595 15.09 34.253 15.09C29.911 15.09 26.6267 16.259 24.4 18.597C22.1733 20.935 20.6703 24.0523 19.891 27.949C19.1117 31.7343 18.722 35.798 18.722 40.14V98.757C18.722 102.876 19.1117 106.884 19.891 110.781C20.7817 114.566 22.3403 117.684 24.567 120.133C26.905 122.582 30.1337 123.807 34.253 123.807ZM91.1726 137L115.555 15.758H79.3156V1.72999H133.424V10.414L108.374 137H91.1726Z" fill="#FFD601" fill-opacity="0.5"/>
</svg>
