<?xml version="1.0" encoding="utf-8"?>
<!-- Generator: Adobe Illustrator 24.1.1, SVG Export Plug-In . SVG Version: 6.00 Build 0)  -->
<svg version="1.1" id="Layer_1" xmlns="http://www.w3.org/2000/svg" xmlns:xlink="http://www.w3.org/1999/xlink" x="0px" y="0px"
	 width="512px" height="512px" viewBox="0 0 512 512" style="enable-background:new 0 0 512 512;" xml:space="preserve">
<style type="text/css">
	.st0{fill:#B0B1B7;}
</style>
<path class="st0" d="M312.2,205.7h8.2l-49.2,108.9l-6.6-9.6c-2.4-3.5-2.8-7.9-1-11.7l35.8-79.3C301.6,209,306.7,205.7,312.2,205.7z
	 M381.8,242.7c-6,0-11.8,0.7-17.4,2.1c31.3,7.8,54.5,36.1,54.5,69.8s-23.2,62-54.5,69.8c5.6,1.4,11.4,2.1,17.4,2.1
	c39.7,0,71.9-32.2,71.9-71.9C453.7,274.9,421.5,242.7,381.8,242.7z"/>
<path d="M462.3,262.8c-1.4,1.1-3.1,1.6-4.8,1.6c-2.4,0-4.9-1.1-6.4-3.2c-21.3-28.6-49.2-40.8-85.3-37.2c-4.4,0.4-8.3-2.8-8.8-7.2
	s2.8-8.3,7.2-8.8c41.6-4.2,75.2,10.5,99.7,43.6C466.5,255.1,465.8,260.1,462.3,262.8z M461.7,315.5c0,46.3-37.7,84-84,84
	c-42.4,0-76.9-29.2-83-69.1H267l0,0c-0.3,0-0.7,0-1-0.1c-0.1,0-0.2,0-0.2,0c-0.3,0-0.5-0.1-0.8-0.2c-0.1,0-0.1,0-0.2,0l-2.1-0.6
	c-1.5-0.2-3-0.9-4.2-1.9l-0.7-0.6l-0.4-0.3c-0.8-0.5-1.5-1.2-2-2l-78-108.7c-1.2,4.3-2.4,8.7-3.6,13.2
	c-10.4,38.3-22.1,81.6-23.2,86.5c-0.4,3.2-2.8,6-6.2,6.8c-0.6,0.1-1.2,0.2-1.7,0.2c-3.7,0-7-2.5-7.8-6.3c-0.5-2.4-0.5-2.4,7.2-31.3
	c2.8-10.6,6.3-23.3,10-37.1c-2.8-0.4-5.8-0.6-9.4-0.6c-37.5,0-68,30.5-68,68s30.5,68,68,68s68-30.5,68-68c0-21.7-10.5-42.2-28-55
	c-3.6-2.6-4.4-7.6-1.8-11.2s7.6-4.4,11.2-1.8c21.6,15.8,34.6,41.2,34.6,67.9c0,46.3-37.7,84-84,84s-84-37.7-84-84s37.7-84,84-84
	c5.1,0,9.4,0.3,13.6,1c0.7-2.5,1.3-5,2-7.5c11.6-43,24.9-91.8,25.8-96.6c2.5-12.3,12-15.9,18.2-15.4H233c4.4,0,8,3.6,8,8s-3.6,8-8,8
	h-31c-0.6,0-0.4,0.1-0.8,0c-0.6,0.1-1.1,1-1.4,2.6c-0.7,3.7-6.4,24.9-15.4,58.4h134.1c0.2-0.4,0.4-0.7,0.6-1l9.5-17.4h-26.1
	c-4.4,0-8-3.6-8-8s3.6-8,8-8h76c4.4,0,8,3.6,8,8s-3.6,8-8,8h-32.3c-0.1,0.9-0.4,1.8-0.9,2.6l-13.1,24.1l-52.9,116.1h96.5L348,254
	c-17.3,8.4-30.8,23.9-36.1,43.3c-1.2,4.3-5.6,6.8-9.8,5.6c-4.3-1.2-6.8-5.6-5.6-9.8c6.6-24.1,23.3-43.3,44.9-53.6l-9.4-20.4
	c-1.9-4-0.1-8.8,3.9-10.6c4-1.9,8.8-0.1,10.6,3.9l9.9,21.6c6.8-1.8,13.9-2.7,21.1-2.7C424,231.4,461.7,269.1,461.7,315.5z
	 M282.7,206h-92.8l57,79.4L282.7,206z M311.2,206h-10.9l-42.7,94.4l6.5,9L311.2,206z M445.7,315.5c0-37.5-30.5-68-68-68
	c-4.9,0-9.7,0.5-14.3,1.5l27.7,60.1c2.3,4.6,1.9,10-0.9,14.4c-2.7,4.2-7.5,6.9-12.5,6.9h-66.8c6,30.8,33.3,53.1,66.8,53.1
	C415.2,383.5,445.7,353,445.7,315.5z"/>
<g>
	<path d="M82.5,330.4c0.7,0,1.4-0.1,2.3-0.1c0.9,0,1.8,0,2.8-0.1c1,0,2-0.1,3-0.1c1,0,2-0.1,3-0.1c0,0,0.1,0,0.2,0
		c0.1,0,0.2,0.1,0.4,0.2c0.1,0.1,0.3,0.2,0.4,0.4s0.2,0.4,0.3,0.6c0.1,0.2,0.1,0.4,0.1,0.5s0,0.3,0,0.5c0,0.2-0.1,0.3-0.2,0.4
		s-0.2,0.2-0.4,0.2c0,0-0.1,0-0.1,0c0,0-0.1,0-0.1,0l-1.8,0.1c-2,0.1-4.1,0.1-6.1,0.2c-2.1,0.1-4.1,0.1-6.2,0.2c-0.1,0-0.2,0-0.3,0
		c-0.1,0-0.2,0-0.3-0.1c-0.1,0-0.2-0.1-0.3-0.2c-0.1-0.1-0.2-0.2-0.2-0.4c-0.1-0.3-0.1-0.5-0.1-0.8c0-0.2,0.1-0.5,0.3-0.7
		c0.1-0.2,0.3-0.4,0.5-0.5c0.2-0.1,0.4-0.2,0.5-0.3c0.1,0,0.1,0,0.1,0s0.1,0,0.2,0L82.5,330.4z M100.2,329.6c0.2,0,0.5,0,0.9,0
		c0.4,0,0.7,0.2,1.1,0.5c0.1,0.1,0.3,0.3,0.4,0.5c0.2,0.2,0.2,0.4,0.3,0.5c0,0.1,0,0.2,0,0.4c0,0.1-0.1,0.3-0.1,0.4
		c-0.1,0.1-0.2,0.3-0.3,0.4c0.1,0.3,0,0.5-0.1,0.6s-0.3,0.2-0.6,0.3c-0.2,0.1-0.3,0.1-0.5,0.1c-0.1,0-0.3,0-0.4,0
		c-0.2,0-0.5-0.1-0.7-0.2s-0.5-0.3-0.7-0.5c-0.2-0.2-0.4-0.4-0.5-0.6c-0.2-0.2-0.3-0.4-0.3-0.6c-0.1-0.2-0.1-0.4,0-0.6
		c0-0.2,0.2-0.4,0.4-0.7c0.1-0.2,0.2-0.3,0.3-0.3c0.1,0,0.2-0.1,0.2-0.1c0.1,0,0.2-0.1,0.3-0.1C100,329.6,100.1,329.6,100.2,329.6z"
		/>
	<path d="M106.4,335.6c0.4-0.2,0.8-0.3,1.2-0.4c0.4-0.1,0.7-0.1,1.1,0s0.6,0.2,0.7,0.5c0.1,0.2,0.2,0.3,0.2,0.6
		c0,0.2,0.1,0.4,0.1,0.7c0,0.2,0,0.4-0.1,0.6c-0.1,0.2-0.2,0.3-0.4,0.4c-0.1,0-0.2,0.1-0.3,0.1c-0.1,0-0.2,0.1-0.3,0.1L92,342.7
		c-0.7,0.2-1.3,0.4-1.9,0.6c-0.6,0.2-1.1,0.4-1.4,0.5l-0.3,0.2c-0.3,0.2-0.6,0.3-1,0.5c-0.4,0.2-0.7,0.3-1.1,0.3c-0.4,0.1-0.7,0-1,0
		c-0.3-0.1-0.5-0.3-0.7-0.6c-0.1-0.3-0.2-0.5-0.2-0.8c0-0.3,0.1-0.5,0.2-0.7c0.1-0.2,0.2-0.4,0.4-0.6c0.2-0.2,0.3-0.3,0.5-0.4
		c0.2-0.1,0.4-0.2,0.6-0.3c0.2-0.1,0.5-0.2,0.8-0.3s0.5-0.2,0.8-0.3c0.3-0.1,0.5-0.2,0.7-0.2l16.9-4.6
		C105.6,335.9,106,335.7,106.4,335.6z"/>
	<path d="M111.1,341.1c0.4-0.2,0.8-0.4,1.1-0.6c0.4-0.1,0.7-0.2,1-0.2c0.3,0,0.6,0.1,0.8,0.4c0.1,0.1,0.2,0.3,0.3,0.5
		c0.1,0.2,0.1,0.4,0.2,0.6s0,0.4,0,0.6c0,0.2-0.1,0.4-0.3,0.5c-0.1,0.1-0.2,0.1-0.3,0.2s-0.2,0.1-0.3,0.2l-15.5,7.3
		c-0.6,0.3-1.2,0.6-1.7,0.9c-0.5,0.3-1,0.5-1.3,0.8l-0.3,0.3c-0.3,0.2-0.6,0.4-0.9,0.6s-0.7,0.4-1,0.5s-0.7,0.2-1,0.1
		c-0.3,0-0.6-0.2-0.8-0.4c-0.2-0.2-0.3-0.5-0.3-0.7c0-0.3,0-0.5,0-0.7c0.1-0.2,0.2-0.5,0.3-0.6s0.3-0.4,0.4-0.5
		c0.1-0.1,0.3-0.2,0.5-0.4s0.5-0.3,0.7-0.4c0.2-0.1,0.5-0.3,0.8-0.4c0.3-0.1,0.5-0.2,0.7-0.3l15.9-7.5
		C110.3,341.6,110.7,341.3,111.1,341.1z"/>
	<path d="M109.6,350.5c0.1-0.1,0.3-0.2,0.4-0.2c0.1-0.1,0.3-0.1,0.4-0.1c0.1,0,0.2,0,0.3,0c0.1,0,0.1,0,0.2,0.1
		c0.1,0.1,0.2,0.2,0.3,0.3c0.1,0.1,0.2,0.2,0.3,0.3c0.1,0.1,0.2,0.3,0.4,0.4c0.2,0.2,0.3,0.4,0.3,0.7c0,0.3-0.1,0.5-0.3,0.8
		c-0.1,0.2-0.3,0.4-0.5,0.5c-1.1,0.9-2.1,1.6-3,2.3c-0.9,0.6-1.6,1.2-2.2,1.6c-0.6,0.4-1.1,0.8-1.5,1.1c-0.4,0.3-0.6,0.5-0.8,0.7
		s-0.3,0.4-0.4,0.7c-0.1,0.3-0.2,0.5-0.3,0.8c-0.1,0.3-0.1,0.5,0,0.8s0.2,0.4,0.4,0.6c0.4,0.3,0.8,0.4,1.4,0.5s1.1,0,1.7,0
		c0.6-0.1,1.2-0.2,1.7-0.4c0.6-0.2,1-0.3,1.4-0.5l0.8-0.3c0.5-0.2,1-0.5,1.6-0.8s1.1-0.7,1.6-1.1c0.5-0.4,1-0.8,1.4-1.1
		c0.4-0.4,0.8-0.6,1-0.9l1.7-1.5c0.3-0.3,0.6-0.4,0.8-0.5c0.2,0,0.5,0.1,0.9,0.4c0.2,0.2,0.4,0.3,0.5,0.5c0.1,0.2,0.2,0.4,0.3,0.6
		c0,0.2,0,0.5-0.1,0.7c-0.1,0.3-0.3,0.5-0.5,0.9c-0.3,0.4-0.7,0.8-1.2,1.3c-0.5,0.5-1.1,0.9-1.6,1.4c-0.3,0.3-0.7,0.6-1,0.9
		c-0.4,0.3-0.7,0.6-1.1,0.9c-0.3,0.3-0.7,0.6-0.9,0.9c-0.3,0.3-0.5,0.6-0.7,0.8c-0.3,0.5-0.7,0.9-1,1.4c-0.3,0.5-0.7,1-1,1.5
		c-0.2,0.2-0.3,0.4-0.5,0.6c-0.1,0.2-0.3,0.3-0.4,0.4c-0.4,0.3-0.7,0.4-1,0.5c-0.3,0.1-0.6-0.1-1-0.3c-0.3-0.2-0.4-0.4-0.5-0.5
		c-0.1-0.2-0.2-0.3-0.2-0.5c0-0.2,0-0.3,0.1-0.4s0.1-0.3,0.2-0.4l1.7-2.6l-0.1-0.1c-0.6,0.2-1.2,0.3-1.9,0.5
		c-0.7,0.2-1.4,0.3-2.1,0.4s-1.4,0.1-2.1,0c-0.7-0.1-1.3-0.4-1.9-0.8c-0.1-0.1-0.2-0.2-0.4-0.4c-0.1-0.2-0.3-0.4-0.4-0.6
		c-0.1-0.2-0.2-0.5-0.3-0.7c-0.1-0.2-0.2-0.5-0.2-0.6c-0.1-0.8-0.1-1.6,0.1-2.3c0.2-0.7,0.6-1.4,1-2c0.2-0.3,0.5-0.6,0.8-0.9
		s0.6-0.6,0.9-0.8c0.3-0.3,0.6-0.5,0.9-0.7c0.3-0.2,0.5-0.4,0.8-0.6c0.7-0.5,1.3-1,1.8-1.4c0.5-0.4,1-0.8,1.4-1.1
		c0.4-0.3,0.7-0.6,1-0.8C109.2,350.9,109.4,350.7,109.6,350.5z"/>
	<path d="M119.3,370.4c0.1,0,0.2,0.1,0.2,0.1s0.1,0.1,0.2,0.2c0.1,0.1,0.2,0.1,0.3,0.2c0.1,0.1,0.2,0.1,0.4,0.2
		c0.5,0.2,1,0.3,1.7,0.5s1.2,0.2,1.8,0.2c0.6,0,1.1,0,1.6-0.1c0.5-0.1,0.8-0.2,0.9-0.4c0.1-0.1,0.1-0.2,0.2-0.3
		c0.1-0.2,0-0.4-0.1-0.6c-0.1-0.2-0.3-0.5-0.5-0.7c-0.2-0.2-0.4-0.5-0.7-0.7c-0.3-0.2-0.5-0.5-0.7-0.7l-0.4-0.4
		c-0.2-0.2-0.4-0.4-0.6-0.7s-0.4-0.5-0.5-0.8c-0.1-0.3-0.3-0.6-0.3-0.9c-0.1-0.3-0.1-0.7,0-1.1c0-0.2,0-0.3,0.1-0.5
		c0-0.2,0.1-0.3,0.1-0.5c0.1-0.3,0.3-0.5,0.6-0.8s0.7-0.5,1.1-0.8c0.4-0.2,0.9-0.4,1.4-0.6c0.5-0.2,1-0.3,1.5-0.3
		c0.4-0.1,0.8-0.2,1.1-0.2s0.7-0.1,1-0.1c0.3,0,0.7,0,1,0c0.3,0,0.7,0.1,1,0.3c0.3,0.1,0.6,0.3,1,0.4c0.4,0.2,0.7,0.4,0.9,0.6
		c0.3,0.2,0.4,0.5,0.6,0.8c0.1,0.3,0.1,0.6,0,1c0,0.1-0.1,0.3-0.2,0.4c-0.1,0.2-0.2,0.3-0.4,0.5c-0.1,0.2-0.3,0.3-0.4,0.4
		c-0.2,0.1-0.3,0.1-0.4,0.1c-0.2-0.1-0.4-0.2-0.5-0.4c-0.1-0.2-0.2-0.3-0.3-0.5c-0.1-0.2-0.2-0.3-0.3-0.4c-0.1-0.1-0.2-0.3-0.4-0.3
		c-0.2-0.1-0.5-0.2-0.9-0.2c-0.3,0-0.7,0-1.1,0s-0.8,0.1-1.2,0.2c-0.4,0.1-0.8,0.2-1.1,0.3c-0.3,0.1-0.6,0.2-0.8,0.4
		c-0.2,0.1-0.4,0.3-0.4,0.5c-0.1,0.2-0.1,0.3,0,0.5c0.1,0.2,0.2,0.3,0.3,0.5c0.2,0.2,0.4,0.4,0.6,0.7c0.2,0.2,0.5,0.5,0.8,0.7
		s0.5,0.5,0.7,0.7c0.2,0.2,0.4,0.4,0.6,0.6c0.2,0.3,0.4,0.5,0.6,0.7c0.2,0.2,0.3,0.4,0.4,0.7c0.1,0.2,0.1,0.5,0.1,0.7s0,0.5-0.2,0.8
		c-0.1,0.1-0.1,0.3-0.2,0.4c-0.1,0.1-0.2,0.3-0.3,0.4c-0.1,0.1-0.2,0.3-0.4,0.5c-0.2,0.2-0.3,0.4-0.5,0.5c-0.2,0.2-0.3,0.3-0.5,0.4
		c-0.2,0.1-0.3,0.2-0.4,0.2c-0.5,0.2-1.2,0.4-1.8,0.5c-0.7,0.1-1.4,0.2-2,0.2c-0.7,0-1.4,0-2-0.1c-0.7-0.1-1.2-0.2-1.7-0.4
		c-0.2-0.1-0.5-0.2-0.8-0.5c-0.3-0.2-0.5-0.4-0.7-0.7c-0.2-0.3-0.3-0.5-0.4-0.8c-0.1-0.3-0.1-0.5,0-0.7c0-0.1,0.1-0.2,0.2-0.3
		c0.1-0.1,0.2-0.2,0.4-0.3s0.3-0.1,0.4-0.2C119.1,370.4,119.2,370.4,119.3,370.4z"/>
	<path d="M139.2,373.1c0-0.9,0.1-1.9,0.3-2.9c0.2-1,0.4-2,0.6-2.9c-0.3,0-0.6,0-0.9-0.1c-0.3-0.1-0.6-0.2-0.8-0.3
		c-0.2-0.1-0.4-0.3-0.6-0.5c-0.2-0.2-0.2-0.4-0.2-0.7c0-0.1,0-0.2,0.1-0.4c0-0.2,0.1-0.3,0.2-0.5c0.1-0.2,0.2-0.3,0.3-0.4
		c0.1-0.1,0.3-0.2,0.4-0.2l2.2,0c0.2,0,0.4-0.1,0.4-0.3c0.1-0.2,0.1-0.4,0.2-0.5c0.1-0.6,0.3-1.2,0.4-1.7c0.1-0.5,0.2-0.9,0.3-1.2
		c0.1-0.3,0.1-0.6,0.2-0.8c0-0.2,0.1-0.4,0.1-0.5c0-0.1,0-0.3,0-0.4c0-0.1,0-0.3,0-0.5l0-0.2c0-0.1,0-0.2,0-0.3
		c0-0.1,0.1-0.3,0.1-0.6c0.1-0.2,0.2-0.4,0.4-0.6s0.4-0.3,0.8-0.3c0.3,0,0.6,0.1,0.8,0.2s0.4,0.3,0.5,0.5c0.1,0.2,0.2,0.4,0.3,0.7
		c0.1,0.3,0.1,0.5,0.1,0.8c0,0.3,0,0.5-0.1,0.7l-1.1,4.7c0.6-0.1,1.1-0.2,1.6-0.3c0.5-0.1,0.9-0.2,1.4-0.3c0.5-0.1,0.9-0.2,1.3-0.3
		c0.4-0.1,0.7-0.2,1-0.2c0.3-0.1,0.5-0.1,0.7-0.2s0.3-0.1,0.5-0.1c0.2,0,0.4,0,0.5,0s0.3,0.1,0.5,0.1c0.1,0.1,0.3,0.2,0.3,0.3
		c0.1,0.1,0.1,0.3,0.1,0.5c0,0.3,0,0.5-0.1,0.7c-0.1,0.2-0.2,0.4-0.4,0.5c-0.2,0.2-0.3,0.3-0.6,0.4s-0.4,0.2-0.6,0.2
		c-0.2,0-0.4,0.1-0.7,0.2s-0.6,0.1-0.9,0.2c-0.3,0.1-0.7,0.2-1,0.3s-0.7,0.2-1.1,0.3c-0.5,0.1-0.9,0.3-1.3,0.4
		c-0.4,0.1-0.7,0.2-0.9,0.2c-0.3,0-0.5,0.1-0.6,0.1c-0.2,0-0.3,0-0.4,0c-0.2,0.6-0.4,1.3-0.5,1.9s-0.3,1.2-0.4,1.7s-0.2,1-0.2,1.4
		c0,0.4-0.1,0.7-0.1,1c0,0.3,0,0.6,0.1,0.9c0.1,0.3,0.2,0.5,0.3,0.7c0.1,0.2,0.3,0.4,0.5,0.5c0.2,0.1,0.5,0.2,0.9,0.2
		c0.6,0,1.2-0.2,1.7-0.5c0.6-0.3,1.1-0.7,1.6-1.2s1-1,1.4-1.6c0.4-0.6,0.9-1.2,1.2-1.7c0.1-0.2,0.3-0.3,0.5-0.3c0.1,0,0.1,0,0.2,0
		c0.1,0,0.2,0.1,0.3,0.1c0.1,0.1,0.2,0.1,0.2,0.2c0.1,0.1,0.1,0.2,0.1,0.3c0,0.1,0,0.2,0,0.2c-0.2,0.7-0.4,1.4-0.8,2.1
		s-0.7,1.4-1.1,2.1c-0.1,0.2-0.3,0.5-0.5,0.7s-0.4,0.5-0.7,0.7c-0.3,0.2-0.5,0.4-0.8,0.6c-0.3,0.2-0.5,0.4-0.8,0.5
		c-0.4,0.3-0.9,0.5-1.4,0.6c-0.5,0.1-1,0.2-1.4,0.2c-0.7,0-1.4-0.1-1.9-0.4c-0.6-0.3-1-0.6-1.4-1c-0.4-0.4-0.7-1-0.9-1.6
		C139.3,374.4,139.2,373.8,139.2,373.1z"/>
	<path d="M158.1,375c-0.1-0.8-0.1-1.7-0.1-2.6s-0.1-1.9-0.1-2.9s-0.1-1.9-0.1-2.9c0-0.9-0.1-1.8-0.2-2.6c0-0.1-0.1-0.2-0.1-0.3
		c0-0.1,0-0.2-0.1-0.3c-0.1-0.3-0.1-0.7-0.2-1c0-0.3-0.1-0.7-0.1-1c0-0.4,0.1-0.7,0.2-0.9c0.1-0.2,0.3-0.3,0.6-0.4
		c0.3-0.1,0.6-0.1,0.8,0c0.2,0.1,0.4,0.2,0.6,0.4c0.2,0.2,0.3,0.4,0.4,0.6c0.1,0.3,0.2,0.5,0.3,0.8c0,0.2,0.1,0.3,0.1,0.5
		c0,0.2,0.1,0.3,0.1,0.4c0.2-0.4,0.5-0.8,0.7-1.2c0.3-0.4,0.5-0.8,0.9-1.2c0.3-0.4,0.7-0.7,1-1c0.4-0.3,0.8-0.5,1.3-0.6
		c0.2,0,0.4-0.1,0.6-0.1c0.2,0,0.4,0,0.6,0c0.2,0,0.5,0,0.7,0c0.3,0,0.5,0.1,0.8,0.2c0.4,0.2,0.8,0.4,1.1,0.8s0.6,0.7,0.7,1.1
		c0,0.2,0.1,0.3,0,0.5c0,0.2-0.1,0.4-0.1,0.6c-0.1,0.2-0.2,0.3-0.3,0.5c-0.1,0.1-0.3,0.2-0.5,0.3c-0.2,0-0.4,0.1-0.7,0
		c-0.3,0-0.5-0.1-0.7-0.2c-0.1,0-0.2-0.1-0.3-0.2s-0.2-0.2-0.3-0.3c-0.1-0.1-0.2-0.2-0.3-0.3s-0.1-0.1-0.2-0.2c-0.1,0-0.1,0-0.2,0
		c-0.1,0-0.1,0-0.2,0c-0.5,0.1-1,0.4-1.5,0.8s-0.8,0.9-1.1,1.4c-0.3,0.5-0.6,1-0.9,1.6c-0.2,0.5-0.5,1-0.6,1.5c0,0.9,0,1.9,0,3
		c0,1,0,2.1,0,3.3l0.1,0.4c0.1,0.3,0.2,0.7,0.2,1c0.1,0.3,0.1,0.6,0,0.9c-0.1,0.2-0.2,0.4-0.4,0.5c-0.2,0.2-0.4,0.3-0.7,0.4
		c-0.5,0.1-0.8,0.1-1.1-0.2c-0.3-0.2-0.5-0.6-0.6-1C158.2,375.4,158.1,375.2,158.1,375z"/>
	<path d="M183.6,363.9c-0.2-0.3-0.4-0.6-0.6-1s-0.5-0.9-0.9-1.4c-0.1,0.4-0.2,0.9-0.4,1.5c-0.1,0.6-0.3,1.1-0.4,1.7
		s-0.4,1.1-0.6,1.5c-0.2,0.5-0.5,0.8-0.8,1.1c-0.3,0.2-0.5,0.4-0.8,0.5c-0.3,0.1-0.6,0.2-0.8,0.2c-0.7,0-1.4-0.1-1.9-0.3
		s-0.9-0.5-1.3-1c-0.2-0.2-0.3-0.5-0.5-0.7c-0.1-0.3-0.3-0.6-0.5-0.9c-0.8-1.6-1.2-3.3-1.3-5.2c-0.1-1.8,0.1-3.6,0.6-5.4
		c0.2-0.7,0.5-1.3,0.9-1.7s0.8-0.9,1.3-1.2c0.2-0.2,0.4-0.3,0.7-0.5c0.3-0.2,0.5-0.3,0.7-0.5c0.2-0.2,0.3-0.4,0.4-0.5
		c0.1-0.1,0.2-0.2,0.4-0.3c0.3-0.2,0.5-0.3,0.7-0.4c0.2-0.1,0.4-0.1,0.6,0c0.2,0,0.4,0.1,0.5,0.2s0.3,0.3,0.4,0.4
		c0.2,0.2,0.3,0.5,0.4,0.7c0.1,0.3,0.2,0.5,0.3,0.8l3.7,8.2c0.3,0.4,0.5,0.8,0.7,1.1s0.4,0.7,0.5,1c0,0.1,0.1,0.2,0.1,0.4
		c0.1,0.1,0.1,0.3,0.1,0.5c0,0.2,0,0.4-0.1,0.5c-0.1,0.2-0.2,0.4-0.4,0.5c-0.3,0.2-0.5,0.4-0.7,0.5c-0.2,0.1-0.4,0.1-0.5,0.1
		c-0.1,0-0.3,0-0.4-0.1C183.8,364.1,183.7,364.1,183.6,363.9z M176.2,363.4c0.1,0.1,0.2,0.4,0.3,0.6c0.1,0.3,0.3,0.5,0.5,0.7
		c0.2,0.2,0.4,0.4,0.6,0.5c0.2,0.1,0.4,0.1,0.7-0.1c0.4-0.3,0.6-0.6,0.8-1s0.3-0.8,0.4-1.3c0.1-0.6,0.2-1.2,0.3-1.9
		c0.1-0.7,0.1-1.4,0.2-2.1c0-0.7,0-1.4-0.1-2s-0.2-1.2-0.5-1.8c-0.1-0.3-0.3-0.6-0.5-1c-0.2-0.4-0.4-0.7-0.6-0.9
		c-0.1-0.1-0.2-0.2-0.3-0.3c-0.1-0.1-0.3,0-0.4,0.1c-0.4,0.3-0.8,0.8-1.1,1.3c-0.3,0.5-0.5,1.1-0.7,1.6s-0.3,1.2-0.4,1.9
		c-0.1,0.7-0.1,1.3,0,2s0.1,1.3,0.3,1.9S176,362.9,176.2,363.4z"/>
	<path d="M190.1,348.8c-0.8-0.4-1.6-1-2.4-1.6c-0.8-0.7-1.5-1.3-2.2-1.9c-0.1,0.2-0.3,0.5-0.5,0.7c-0.2,0.2-0.4,0.4-0.7,0.6
		c-0.2,0.2-0.5,0.3-0.7,0.3c-0.2,0-0.5,0-0.7-0.1c-0.1,0-0.2-0.1-0.3-0.2c-0.1-0.1-0.2-0.2-0.3-0.4c-0.1-0.1-0.2-0.3-0.2-0.5
		c0-0.2,0-0.3,0.1-0.5l1-2c0.1-0.2,0.1-0.4,0-0.5c-0.1-0.2-0.3-0.3-0.4-0.4c-0.5-0.4-0.9-0.8-1.3-1.1c-0.4-0.3-0.7-0.6-0.9-0.8
		c-0.2-0.2-0.4-0.4-0.6-0.6c-0.2-0.1-0.3-0.2-0.4-0.3c-0.1-0.1-0.3-0.1-0.4-0.2c-0.1-0.1-0.3-0.1-0.5-0.2l-0.1-0.1
		c-0.1,0-0.2-0.1-0.3-0.2c-0.1-0.1-0.3-0.2-0.5-0.4c-0.2-0.2-0.3-0.4-0.4-0.6c-0.1-0.2,0-0.5,0.1-0.8c0.1-0.3,0.3-0.5,0.5-0.6
		s0.4-0.2,0.7-0.2s0.5,0,0.7,0.1c0.3,0.1,0.5,0.2,0.7,0.3c0.2,0.1,0.5,0.3,0.6,0.4l3.5,3.3c0.2-0.6,0.4-1.1,0.5-1.5
		c0.1-0.5,0.3-0.9,0.4-1.4c0.2-0.5,0.3-0.9,0.4-1.3c0.1-0.4,0.2-0.7,0.3-0.9c0.1-0.3,0.1-0.5,0.2-0.7c0.1-0.2,0.1-0.3,0.2-0.4
		c0.1-0.2,0.2-0.3,0.3-0.5c0.1-0.1,0.2-0.3,0.4-0.4c0.1-0.1,0.3-0.1,0.4-0.2c0.1,0,0.3,0,0.5,0.1c0.2,0.1,0.4,0.3,0.5,0.5
		c0.1,0.2,0.2,0.4,0.3,0.6c0.1,0.2,0.1,0.4,0.1,0.7c0,0.2-0.1,0.4-0.1,0.7c-0.1,0.2-0.1,0.4-0.2,0.7c-0.1,0.3-0.2,0.6-0.2,0.9
		c-0.1,0.3-0.2,0.7-0.3,1c-0.1,0.4-0.2,0.7-0.3,1.1c-0.1,0.5-0.2,0.9-0.3,1.3c-0.1,0.4-0.2,0.7-0.3,0.9c-0.1,0.2-0.1,0.4-0.2,0.6
		c-0.1,0.2-0.1,0.3-0.2,0.4c0.5,0.5,0.9,0.9,1.4,1.4c0.5,0.4,0.9,0.8,1.3,1.1s0.8,0.6,1.1,0.9c0.3,0.2,0.6,0.4,0.8,0.5
		c0.3,0.1,0.5,0.3,0.8,0.3c0.3,0.1,0.5,0.1,0.8,0.1s0.5-0.1,0.7-0.3c0.2-0.1,0.4-0.4,0.6-0.7c0.3-0.5,0.4-1.1,0.4-1.8
		c0-0.6-0.1-1.3-0.3-2c-0.2-0.7-0.4-1.4-0.7-2.1c-0.3-0.7-0.6-1.3-0.9-1.9c-0.1-0.2-0.1-0.4,0-0.6c0-0.1,0.1-0.1,0.1-0.2
		c0.1-0.1,0.1-0.1,0.2-0.2c0.1-0.1,0.2-0.1,0.3-0.1c0.1,0,0.2,0,0.3,0.1c0.1,0,0.1,0.1,0.2,0.1c0.5,0.5,1,1,1.4,1.7s0.9,1.3,1.3,2
		c0.2,0.2,0.3,0.5,0.4,0.8c0.1,0.3,0.2,0.6,0.3,0.9s0.1,0.7,0.2,1c0,0.3,0.1,0.6,0.1,0.9c0,0.5,0,1-0.2,1.5s-0.3,0.9-0.5,1.3
		c-0.3,0.6-0.8,1.1-1.2,1.5c-0.5,0.4-1,0.6-1.6,0.7c-0.6,0.1-1.2,0.1-1.8,0S190.7,349.1,190.1,348.8z"/>
	<path d="M196.5,330.8c-0.7-0.2-1.3-0.6-2-1c-0.7-0.4-1.4-1-2.1-1.6c-0.7-0.6-1.4-1.4-2-2.3c-0.6-0.9-1.2-1.9-1.8-3
		c-0.1-0.2-0.2-0.4-0.2-0.8c-0.1-0.4-0.1-0.7-0.1-1.1c-0.4-0.5-0.6-1.1-0.5-1.8c0.1-0.9,0.4-1.6,0.9-2.1s1.1-1,1.9-1.3
		c0.3-0.1,0.5-0.2,0.7-0.3s0.5-0.1,0.8-0.2c0.3,0,0.6-0.1,0.9-0.1c0.3,0,0.6,0,1,0c0.9,0.1,1.7,0.3,2.6,0.7s1.7,0.9,2.5,1.5
		s1.6,1.3,2.3,2.1c0.7,0.8,1.3,1.7,1.8,2.6c0.4,0.6,0.6,1.3,0.8,2.1c0.2,0.7,0.2,1.6,0.1,2.5c-0.1,0.8-0.3,1.6-0.6,2.2
		c-0.3,0.6-0.7,1.1-1.1,1.4s-1,0.6-1.6,0.8s-1.3,0.2-2,0.1C198,331.2,197.3,331.1,196.5,330.8z M197,328.1c0.2,0.1,0.5,0.2,0.7,0.2
		c0.2,0.1,0.4,0.1,0.6,0.1c0.4,0,0.7,0,1,0c0.3-0.1,0.6-0.2,0.9-0.4s0.5-0.4,0.6-0.7c0.2-0.3,0.3-0.7,0.3-1.1c0.1-0.8,0-1.6-0.4-2.4
		c-0.3-0.8-0.8-1.5-1.4-2.1c-0.6-0.6-1.2-1.2-1.9-1.6c-0.7-0.5-1.3-0.8-1.9-1c-0.4-0.1-0.7-0.3-1.1-0.4c-0.3-0.1-0.6-0.2-0.9-0.2
		s-0.6,0-0.8,0.1c-0.3,0.1-0.6,0.2-0.9,0.3c-0.2,0.1-0.4,0.2-0.6,0.2c-0.2,0.1-0.4,0.1-0.6,0.2c0.1,0.1,0.3,0.2,0.4,0.3
		c0.1,0.1,0.2,0.3,0.3,0.5c0.1,0.2,0.1,0.5,0.2,0.8c0,0.3,0.1,0.8,0,1.4c0.1,0.4,0.2,0.8,0.4,1.2c0.2,0.4,0.5,0.8,0.8,1.2
		c0.3,0.4,0.6,0.8,1,1.1c0.4,0.4,0.7,0.7,1.1,1s0.8,0.6,1.1,0.8S196.7,327.9,197,328.1z"/>
	<path d="M201.7,309.5c-0.8,0-1.7,0-2.6-0.1c-0.9,0-1.9-0.1-2.9-0.1c-1,0-1.9-0.1-2.9-0.1c-0.9,0-1.8-0.1-2.6-0.1
		c-0.1,0-0.2,0-0.3,0.1c-0.1,0-0.2,0-0.3,0c-0.3,0.1-0.7,0.1-1,0.1c-0.3,0-0.7,0-1,0c-0.4-0.1-0.7-0.1-0.9-0.3
		c-0.2-0.1-0.3-0.3-0.3-0.7c-0.1-0.3,0-0.6,0.1-0.8c0.1-0.2,0.2-0.4,0.4-0.5c0.2-0.1,0.4-0.3,0.7-0.3s0.5-0.1,0.8-0.2
		c0.2,0,0.3,0,0.5-0.1s0.3,0,0.4-0.1c-0.4-0.3-0.7-0.5-1.1-0.8c-0.4-0.3-0.7-0.6-1.1-1s-0.6-0.7-0.9-1.1c-0.2-0.4-0.4-0.8-0.5-1.3
		c0-0.2,0-0.4,0-0.6s0-0.4,0-0.6c0-0.2,0.1-0.5,0.1-0.7c0.1-0.3,0.1-0.5,0.3-0.7c0.2-0.4,0.5-0.8,0.9-1.1s0.8-0.5,1.2-0.6
		c0.2,0,0.3,0,0.5,0c0.2,0,0.4,0.1,0.6,0.2c0.2,0.1,0.3,0.2,0.5,0.3c0.1,0.1,0.2,0.3,0.2,0.5c0,0.2,0,0.4,0,0.7
		c0,0.3-0.1,0.5-0.3,0.7c-0.1,0.1-0.1,0.2-0.2,0.3s-0.2,0.2-0.3,0.3c-0.1,0.1-0.2,0.2-0.3,0.3c-0.1,0.1-0.2,0.1-0.2,0.2
		c0,0.1,0,0.1,0,0.2s0,0.1,0,0.2c0.1,0.6,0.3,1.1,0.7,1.5s0.8,0.9,1.3,1.2s1,0.7,1.5,1c0.5,0.3,1,0.5,1.4,0.8
		c0.9,0.1,1.9,0.2,2.9,0.3c1,0.1,2.1,0.2,3.3,0.3l0.4-0.1c0.3-0.1,0.7-0.1,1-0.1s0.7,0,0.9,0c0.2,0.1,0.4,0.2,0.5,0.4
		c0.2,0.2,0.3,0.5,0.3,0.8c0.1,0.5,0,0.8-0.3,1.1c-0.3,0.3-0.6,0.5-1,0.5C202.1,309.6,201.9,309.6,201.7,309.5z"/>
</g>
</svg>
