<?xml version="1.0" encoding="utf-8"?>
<!-- Generator: Adobe Illustrator 24.1.1, SVG Export Plug-In . SVG Version: 6.00 Build 0)  -->
<svg version="1.1" id="Layer_1" xmlns="http://www.w3.org/2000/svg" xmlns:xlink="http://www.w3.org/1999/xlink" x="0px" y="0px"
	 width="512px" height="512px" viewBox="0 0 512 512" style="enable-background:new 0 0 512 512;" xml:space="preserve">
<style type="text/css">
	.st0{fill:#B0B1B7;}
</style>
<path class="st0" d="M486,306.2c-16.9-16.9-133.9-133.9-134-134.1v1.2v53.5c0,3,3.9,4,5.4,1.4c2.6-4.5,7.3-6.9,12-6.9
	c3.4,0,6.8,1.2,9.5,3.9l74.9,72.3c3.1,3,3.1,7.9,0.1,10.9L344.3,420.8l-0.1,0.1c-5.5,5.5-5.4,14.5,0.1,20l7,7L486,310.3
	C487.1,309.2,487.1,307.4,486,306.2z M30.1,193.6C47,210.5,164,327.5,164.1,327.7v-1.2V273c0-3-3.9-4-5.4-1.4
	c-2.6,4.5-7.3,6.9-12,6.9c-3.4,0-6.8-1.2-9.5-3.9l-74.9-72.3c-3.1-3-3.1-7.9-0.1-10.9L171.9,79.1L172,79c5.5-5.5,5.4-14.5-0.1-20
	l-7-7L30.1,189.5C29,190.6,29,192.5,30.1,193.6z M255.4,360.5h0.3l-29,88.7h-33.6l0,0c-15.6,0-31.7-3.2-26.8-18.1l19.1-55.3
	c3-9.1,11.5-15.3,21.1-15.3l0,0c9.1,0,17.1-5.8,19.9-14.5l81-250.6c6.1-18.9,23.8-31.8,43.6-31.8h0.2L255.4,360.5z"/>
<path d="M488.6,322.2L362.8,448c-1.6,1.6-3.6,2.3-5.7,2.3c-2,0-4.1-0.8-5.7-2.3c-3.1-3.1-3.1-8.2,0-11.3l125.8-125.8
	c1-0.9,1.1-2.1,1.1-2.6c0-0.6-0.1-1.7-1.1-2.6l-124-124v45.5c0,4.4-3.6,8-8,8s-8-3.6-8-8v-64.8c0-3.2,1.9-6.2,4.9-7.4
	s6.4-0.6,8.7,1.7l137.6,137.6C496.3,302,496.3,314.5,488.6,322.2z M391.6,308.3c0,1.3-0.5,2.6-1.5,3.5l-38.3,38.3
	c-3.1,3.1-3.1,8.2,0,11.3c1.6,1.6,3.6,2.3,5.7,2.3c2,0,4.1-0.8,5.7-2.3l38.3-38.3c8.2-8.2,8.2-21.5,0-29.6l-42.9-42.9
	c-3.1-3.1-8.2-3.1-11.3,0c-3.1,3.1-3.1,8.2,0,11.3l42.9,42.9C391.1,305.7,391.6,307,391.6,308.3z M170.8,345.5c1,0,2.1-0.2,3.1-0.6
	c3-1.2,4.9-4.2,4.9-7.4v-64.8c0-4.4-3.6-8-8-8s-8,3.6-8,8v45.5l-124-124c-1.4-1.4-1.4-3.8,0-5.3L164.6,63.1c3.1-3.1,3.1-8.2,0-11.3
	s-8.2-3.1-11.3,0L27.5,177.6c-3.7,3.7-5.8,8.7-5.8,13.9c0,5.3,2,10.2,5.8,13.9L165.1,343C166.7,344.7,168.8,345.5,170.8,345.5z
	 M126,188l38.3-38.3c3.1-3.1,3.1-8.2,0-11.3s-8.2-3.1-11.3,0l-38.3,38.3c-8.2,8.2-8.2,21.5,0,29.6l42.9,42.9
	c1.6,1.6,3.6,2.3,5.7,2.3s4.1-0.8,5.7-2.3c3.1-3.1,3.1-8.2,0-11.3l-43-42.8C124.1,193.1,124.1,190,126,188z M353.9,56.1
	c-4.2-1.4-8.7,0.9-10.1,5.2L220.9,441.2h-49.8L290.6,71.7h27.9c4.4,0,8-3.6,8-8s-3.6-8-8-8h-33.7c-3.5,0-6.5,2.2-7.6,5.5
	L152.5,446.8c-0.8,2.4-0.4,5.1,1.1,7.2s3.9,3.3,6.5,3.3h66.6c3.5,0,6.5-2.2,7.6-5.5L359,66.2C360.4,62,358.1,57.5,353.9,56.1z"/>
</svg>
