<?xml version="1.0" encoding="utf-8"?>
<!-- Generator: Adobe Illustrator 24.1.1, SVG Export Plug-In . SVG Version: 6.00 Build 0)  -->
<svg version="1.1" id="Layer_1" xmlns="http://www.w3.org/2000/svg" xmlns:xlink="http://www.w3.org/1999/xlink" x="0px" y="0px"
	 width="512px" height="512px" viewBox="0 0 512 512" style="enable-background:new 0 0 512 512;" xml:space="preserve">
<style type="text/css">
	.st0{display:none;fill:#B0B1B7;}
	.st1{fill:#081616;}
	.st2{fill:#B0B1B7;}
</style>
<path class="st0" d="M437.5,356h-363c-13,0-23.6-10.6-23.6-23.6V153c0-13,10.6-23.6,23.6-23.6h363c13,0,23.6,10.6,23.6,23.6v179.4
	C461.1,345.4,450.5,356,437.5,356z"/>
<path d="M497,304.7c-2.1-4.2,0.9-7.8-7.2-9.6c-9.9,1.5-8.8,8.5-8.8,10.8v47.9H378.7c-4,0-7.5,2.8-8.1,6.7c-0.8,5,3.1,9.3,7.9,9.3
	H481V415H257.2c-4.4,0-8,3.6-8,8v39.7H79c-4,0-7.5,2.8-8.1,6.7c-0.8,5,3.1,9.3,7.9,9.3h356.6c4,0,7.5-2.8,8.1-6.7
	c0.8-5-3.1-9.3-7.9-9.3H265.2V431h216.2c8.6,0,15.6-7,15.6-15.6l0.3-114.3C497.4,391.7,497.3,305.4,497,304.7z M59,382.1
	c5,0,9,4,9,9s-4,9-9,9s-9-4-9-9S54.1,382.1,59,382.1z M87.5,382.1c5,0,9,4,9,9s-4,9-9,9s-9-4-9-9S82.5,382.1,87.5,382.1z
	 M124.9,391.1c0,5-4,9-9,9s-9-4-9-9s4-9,9-9S124.9,386.1,124.9,391.1z M233.1,423c0-4.4-3.6-8-8-8H29.9V117.4h431.2c4.4,0,8-3.6,8-8
	s-3.6-8-8-8H29.4c-8.6,0-15.6,7-15.6,15.6v298.4c0,8.6,7,15.6,15.6,15.6h195.7C229.5,431,233.1,427.5,233.1,423z"/>
<g>
	<path class="st1" d="M65.2,343.2c2-1.4,4-2.3,6.1-2.7c2.1-0.4,4.3-0.7,6.6-0.9l16.3-66.2c-0.2,0-0.7,0-1.5,0
		c-0.8,0-1.7-0.1-2.7-0.2c-1-0.1-2-0.3-2.9-0.6c-1-0.3-1.7-0.6-2.2-1.1c-0.2-0.3-0.5-0.7-0.8-1.2c-0.3-0.5-0.6-1-0.9-1.6
		c-0.3-0.6-0.6-1.2-0.8-1.8c-0.2-0.6-0.3-1.2-0.3-1.8c0-1,0.4-1.8,1.3-2.5c0.8-0.7,1.9-1.2,3.1-1.6c1.2-0.4,2.6-0.7,4-0.9
		c1.4-0.2,2.7-0.3,3.9-0.3c5.5,0,10.6,0.2,15.3,0.5c4.7,0.3,9.1,1,13.1,2.1c4.1,1.1,7.9,2.6,11.5,4.6c3.6,2,7,4.7,10.3,8
		c1.2,1.3,2.4,2.7,3.5,4.3c1.1,1.6,2.1,3.3,2.9,5.1s1.5,3.8,2.1,5.9c0.5,2.1,0.8,4.3,0.8,6.7c0,1.3-0.1,2.6-0.2,4
		c-0.1,1.4-0.3,2.6-0.5,3.6c-1.3,5.1-3,9.5-5.3,13.4c-2.3,3.9-4.9,7.4-8,10.4c-3,3-6.4,5.7-10,7.9c-3.6,2.2-7.4,4.2-11.2,5.8
		c-3.9,1.7-7.8,3.1-11.8,4.3c-4,1.2-7.9,2.3-11.7,3.3h0.1c-1.7,0.5-3.5,1-5.5,1.4c-2,0.4-3.9,0.7-6,1c-2,0.3-4,0.5-6,0.6
		c-2,0.2-3.8,0.2-5.6,0.2c-1.9,0-3.5-0.1-4.8-0.4c-1.3-0.2-2.4-0.6-3.2-1c-0.8-0.4-1.4-0.9-1.7-1.4c-0.3-0.5-0.5-1.1-0.5-1.7
		c0-0.9,0.3-1.8,0.8-2.7C63.2,344.9,64,344.1,65.2,343.2z M93.9,324.5c-0.5,2.2-1.1,4.5-1.6,6.9c-0.6,2.4-1.1,4.7-1.6,6.9l1.5-0.3
		c1-0.2,2.3-0.5,3.9-1c1.6-0.4,3.5-1,5.7-1.6c2.1-0.7,4.4-1.4,6.7-2.4c2.4-0.9,4.8-2,7.5-3.3c2.6-1.3,5.2-2.7,7.8-4.4
		c2.6-1.6,5-3.4,7.4-5.3c2.4-1.9,4.4-4,6.2-6.2c1.8-2.2,3.2-4.5,4.3-6.9c1.1-2.4,1.6-4.9,1.6-7.6c0-2.7-0.5-5.2-1.6-7.6
		c-1-2.4-2.5-4.6-4.2-6.6s-3.8-3.8-6.1-5.4c-2.3-1.6-4.8-3-7.3-4.1c-2.5-1.1-5.1-2-7.7-2.6c-2.6-0.6-5-0.9-7.4-0.9
		c-3.3,8.5-6.1,17-8.4,25.8C98.3,306.6,96.1,315.5,93.9,324.5z"/>
	<path class="st1" d="M159,335.7c0.6-2.3,1.3-4.8,2.2-7.4c0.9-2.6,1.9-5.2,2.9-7.8c1-2.7,2-5.4,3-8.1c1-2.7,1.8-5.5,2.5-8.2
		c0.2-0.7,0.3-1.3,0.5-1.9c0.1-0.6,0.3-1.2,0.4-1.8c0.3-0.7,0.7-1.2,1.3-1.5c0.5-0.4,1.1-0.5,1.7-0.5c0.6,0,1.1,0.1,1.6,0.3
		c0.5,0.2,0.9,0.5,1.3,0.9c0.4,0.4,0.7,0.9,0.9,1.5c0.2,0.6,0.3,1.4,0.3,2.2c0,0.9-0.1,2-0.4,3.2c-1,2.6-2,5.1-3.1,7.6
		c-1,2.5-2,4.9-3,7.3c-1,2.4-1.9,4.7-2.7,7c-0.8,2.3-1.5,4.6-2.1,6.9c-0.1,0.2-0.2,0.6-0.3,1.2c-0.2,0.6-0.3,1.3-0.5,2.2
		c-0.2,0.9-0.3,1.8-0.4,2.7c-0.1,1-0.2,1.9-0.2,2.8c0,0.6,0,1.2,0.1,1.8c0.1,0.6,0.2,1,0.4,1.5c0.2,0.4,0.4,0.7,0.7,1
		c0.3,0.2,0.7,0.3,1.2,0.3c1,0,2.2-0.5,3.6-1.5c1.4-1,3-2.4,4.6-4.2c1.7-1.8,3.3-3.8,5.1-6.2c1.7-2.3,3.4-4.9,5.1-7.5
		c1.7-2.7,3.2-5.4,4.6-8.3c1.4-2.8,2.6-5.6,3.6-8.4c0.2-0.5,0.5-0.8,0.9-0.9c0.3-0.1,0.8-0.2,1.3-0.2c1,0,1.9,0.3,2.5,0.9
		c0.7,0.6,1,1.4,1,2.3c0,0.2,0,0.5-0.1,0.7c-0.1,0.2-0.1,0.5-0.2,0.7l-0.5,1.6c-0.4,1.2-0.8,2.3-1.2,3.3s-0.7,2-0.9,2.9
		c-0.3,1.3-0.6,2.5-0.8,3.5c-0.2,1.1-0.4,2.1-0.5,3c-0.1,0.9-0.2,1.9-0.2,2.8c0,0.9-0.1,1.8-0.1,2.7c0,0.4,0,0.9,0.1,1.6
		s0.2,1.5,0.3,2.3s0.3,1.7,0.5,2.6c0.2,0.9,0.5,1.7,0.8,2.4c0.3,0.7,0.6,1.3,1,1.8c0.4,0.5,0.9,0.7,1.4,0.7c0.8,0,1.6-0.3,2.5-1
		s1.8-1.6,2.7-2.7s1.8-2.5,2.7-4s1.8-3.2,2.7-5c0.9-1.8,1.7-3.6,2.5-5.5c0.8-1.9,1.5-3.8,2.2-5.7s1.2-3.7,1.7-5.4s0.9-3.3,1.2-4.8
		c0.3-1.4,0.5-2.7,0.7-4c0.2-1.3,0.4-2.6,0.6-3.9s0.4-2.6,0.7-3.9c0.2-1.3,0.5-2.6,0.9-4c0.1-0.5,0.3-1,0.6-1.5
		c0.3-0.5,0.6-1,0.9-1.4c0.4-0.4,0.8-0.8,1.2-1c0.4-0.3,0.9-0.4,1.4-0.4c1.2,0,1.9,0.3,2.4,0.9s0.6,1.7,0.6,3.2
		c0,1.1-0.1,2.3-0.3,3.8c-0.2,1.4-0.4,3-0.7,4.5c-0.3,1.6-0.6,3.2-1,4.8s-0.7,3.2-1.1,4.6c-0.7,2.9-1.7,6-2.9,9.2
		c-1.2,3.2-2.5,6.2-4,9.3c-1.5,3-3,5.8-4.6,8.5c-1.6,2.7-3.3,4.9-4.9,6.9c-0.6,0.7-1.2,1.4-2,2.1c-0.8,0.7-1.6,1.3-2.5,1.9
		c-0.9,0.6-1.8,1-2.7,1.4s-1.8,0.6-2.7,0.6c-1.8,0-3.3-0.5-4.5-1.6c-1.2-1-2.2-2.4-2.9-4.2c-0.8-1.7-1.3-3.7-1.7-6
		c-0.4-2.2-0.7-4.5-0.9-6.9c-1.4,2.1-2.8,4.1-4,5.7c-1.2,1.7-2.4,3.2-3.7,4.6c-0.9,1.1-2,2.2-3.1,3.4c-1.2,1.2-2.4,2.4-3.7,3.4
		c-1.3,1-2.6,1.9-4,2.6c-1.4,0.7-2.7,1-4,1c-1.5,0-2.8-0.3-3.8-0.8c-1-0.5-1.8-1.3-2.5-2.2c-0.6-0.9-1.1-2-1.3-3.3
		c-0.3-1.3-0.4-2.6-0.4-4.1c0-1.7,0.1-3.5,0.4-5.3C158.2,339.3,158.6,337.5,159,335.7z"/>
</g>
<path class="st2" d="M489,207.4L368.3,339.7C358,351,358,351,294.2,380.3l-20.3,9.3l7.4-20.9c8.5-24.1,5.3-15.9,9.3-26.2
	c20.3-9.7,55.7-30.5,61-36.3l117.1-126.8l0,0c10.4-0.5,19.2,7.6,19.7,18L489,207.4L489,207.4z"/>
<path d="M244.3,360c-1.8,0-3.4-0.7-4.8-1.9c-1.9-1.9-2.5-4.7-1.5-7.2l8.4-20.6c27.1-66.3,27.1-66.3,38.9-78l78.6-78
	c1.3-1.2,2.9-1.9,4.8-1.9h26.8c3.7,0,6.7,3,6.7,6.6c0,3.7-3,6.6-6.7,6.6h-24L295,261.8c-9.9,9.8-9.9,9.8-35.9,73.6l-2.5,6.1l6.1-2.5
	c64.3-25.9,64.3-25.9,74.1-35.7c2.6-2.6,6.9-2.6,9.4,0c2.6,2.6,2.6,6.8,0,9.4c-11.8,11.7-11.8,11.7-78.6,38.7l-20.9,8.2
	C245.9,359.8,245.1,360,244.3,360z M490.7,307.4c-3.7,0-9.5-1.9-9.5-5.6l-0.1-109c0-6.7-2.6-12.8-9.4-12.8h-3.9L365.3,290.6
	c-2.6,2.6-8.6,1.3-11.1-1.2c-2.6-2.6-0.1-8.2,2.5-10.7l103.6-109.8c1.3-1.2,4.2-3.9,6-3.9l6.6-0.8c0.4-0.1,0.8-0.1,1.2-0.1
	c13.8,0.4,23.3,14.5,23.3,28.3v108.5C497.4,304.4,494.3,307.4,490.7,307.4z"/>
</svg>
