<svg width="50" height="50" viewBox="0 0 50 50" fill="none" xmlns="http://www.w3.org/2000/svg">
<path d="M28.1152 20.791C27.8809 21.582 27.7539 22.4805 27.7539 23.5156V27.0117H24.6484V31.1621H27.7539V43.6035H20.5371H17.2852H16.4062V43.5352C13.9355 43.125 12.0508 40.9766 12.0508 38.3887V36.1719H14.082C15.3613 36.1719 16.4062 35.127 16.4062 33.8477C16.4062 24.3457 19.5508 20.791 28.1152 20.791ZM44.5215 8.25195H38.3984V20.752C38.3008 20.752 38.2129 20.7422 38.1152 20.7422C37.5195 20.7129 36.7676 20.6934 36.0449 20.6934C33.291 20.6934 31.8945 21.9922 31.8945 24.5605V27.0215H37.9297L37.2363 31.1719H31.8945V43.6133H44.3945C46.1133 43.6133 47.5 42.2168 47.5 40.5078V23.1738V20.791V11.2305C47.5 9.58984 46.1621 8.25195 44.5215 8.25195Z" fill="url(#paint0_linear)"/>
<path d="M44.3945 44.375H32.1875C31.7578 44.375 31.4062 44.0234 31.4062 43.5937V31.1621C31.4062 30.7324 31.7578 30.3809 32.1875 30.3809H37.1484L37.5977 27.5H32.1875C31.7578 27.5 31.4062 27.1484 31.4062 26.7187V24.2578C31.4062 21.1816 33.2031 19.4141 36.3379 19.4141C36.8164 19.4141 37.4023 19.4238 37.9199 19.4434V16.7676C37.2168 16.709 36.2988 16.6504 35.6152 16.6504C33.252 16.6504 31.4453 17.1973 30.2734 18.2715C29.1211 19.3262 28.5352 20.9277 28.5352 23.0273V26.7187C28.5352 27.1484 28.1836 27.5 27.7539 27.5H25.1367V30.3809H27.7539C28.1836 30.3809 28.5352 30.7324 28.5352 31.1621V43.6035C28.5352 44.0332 28.1836 44.3848 27.7539 44.3848H15.3711C13.2227 44.3848 11.4844 42.6367 11.4844 40.498V17.0117C11.4844 16.582 11.8359 16.2305 12.2656 16.2305C12.6953 16.2305 13.0469 16.582 13.0469 17.0117V40.4785C13.0469 41.7578 14.0918 42.8027 15.3711 42.8027H26.9629V31.9434H24.3457C23.916 31.9434 23.5645 31.5918 23.5645 31.1621V26.7187C23.5645 26.2891 23.916 25.9375 24.3457 25.9375H26.9629V23.0273C26.9629 17.9102 30.0293 15.0879 35.6055 15.0879C36.6113 15.0879 38.0664 15.1953 38.7793 15.2734C39.1797 15.3125 39.4727 15.6543 39.4727 16.0547V20.2539C39.4727 20.4687 39.3848 20.6738 39.2285 20.8203C39.0723 20.9668 38.8672 21.0449 38.6523 21.0352C38.0957 21.0059 37.0508 20.9863 36.3184 20.9863C34.0527 20.9863 32.9492 22.0605 32.9492 24.2676V25.9473H38.4961C38.7207 25.9473 38.9453 26.0449 39.0918 26.2207C39.2383 26.3965 39.3066 26.6211 39.2676 26.8457L38.5742 31.2891C38.5156 31.6699 38.1836 31.9531 37.8027 31.9531H32.9492V42.832H44.375C45.6543 42.832 46.6992 41.7871 46.6992 40.5078V11.4648C46.6992 10.1855 45.6543 9.14062 44.375 9.14062H15.3711C14.0918 9.14062 13.0469 10.1855 13.0469 11.4648V13.8672C13.0469 14.2969 12.6953 14.6484 12.2656 14.6484C11.8359 14.6484 11.4844 14.2969 11.4844 13.8672V11.4746C11.4844 9.32617 13.2324 7.58789 15.3711 7.58789H44.3945C46.543 7.58789 48.2812 9.33594 48.2812 11.4746V40.498C48.2812 42.6269 46.5332 44.375 44.3945 44.375Z" fill="black"/>
<path d="M7.26562 24.3945H3.00781V20.1367H7.26562V24.3945ZM7.26562 26.9824H3.00781V31.2402H7.26562V26.9824ZM7.26562 33.8184H3.00781V38.0762H7.26562V33.8184Z" fill="#FAACA8"/>
<defs>
<linearGradient id="paint0_linear" x1="29.7787" y1="42.9429" x2="29.7787" y2="9.19815" gradientUnits="userSpaceOnUse">
<stop stop-color="#DDD6F3"/>
<stop offset="1" stop-color="#FAACA8"/>
</linearGradient>
</defs>
</svg>
