<svg width="50" height="50" viewBox="0 0 50 50" fill="none" xmlns="http://www.w3.org/2000/svg">
<path d="M42.5977 24.8242C42.5977 29.5898 42.5781 30.1855 42.4902 32.0605C42.4023 33.9257 42.1094 35.205 41.6699 36.3183C41.2207 37.4707 40.625 38.4472 39.6484 39.4238C38.6719 40.4004 37.6953 40.9961 36.543 41.4453C35.4297 41.875 34.1504 42.1777 32.2852 42.2558C30.4102 42.3437 23.9648 42.3632 19.1992 42.3632H17.3438C13.8086 42.3632 8.08594 39.4922 8.08594 35.957H11.8359C14.9805 35.957 17.6563 33.9941 18.7207 31.2207C20.3516 32.832 22.5879 33.8281 25.0586 33.8281C30.0391 33.8281 34.0723 29.7949 34.0723 24.8144C34.0723 19.834 30.0391 15.8007 25.0586 15.8007C22.8223 15.8007 20.7813 16.6113 19.209 17.959C19.2578 12.0117 24.1406 7.2363 30.0977 7.31442C31.0547 7.32419 31.8164 7.34372 32.2949 7.36325C34.1602 7.45114 35.4395 7.74411 36.5527 8.1738C37.6953 8.64255 38.6719 9.24801 39.6484 10.2246C40.625 11.2011 41.2207 12.1777 41.6699 13.33C42.0996 14.4433 42.4023 15.7226 42.4902 17.5879C42.5781 19.4629 42.5977 20.0586 42.5977 24.8242Z" fill="url(#paint0_linear)"/>
<path d="M43.3789 24.8242C43.3789 29.5898 43.3594 30.2148 43.2715 32.0996C43.1934 33.877 42.9199 35.2734 42.4023 36.6016C41.8848 37.9395 41.2012 38.9746 40.2051 39.9805C39.1992 40.9863 38.1641 41.6602 36.8262 42.1777C35.4883 42.6953 34.1016 42.9687 32.3145 43.0469C30.4199 43.1348 29.7949 43.1543 25.0391 43.1543C20.2832 43.1543 19.6582 43.1348 17.7637 43.0469C15.9863 42.9687 14.5898 42.6953 13.252 42.1777C11.9238 41.6602 10.8789 40.9766 9.87305 39.9805C8.86719 38.9746 8.19336 37.9395 7.67578 36.6016C7.1582 35.2637 6.88477 33.877 6.80664 32.0996C6.78711 31.6699 7.11914 31.2988 7.54883 31.2793C7.97852 31.2598 8.34961 31.5918 8.36914 32.0215C8.4375 33.623 8.68164 34.8633 9.13086 36.0352C9.57031 37.1582 10.1367 38.0273 10.9766 38.877C11.8164 39.7168 12.6953 40.293 13.8184 40.7227C14.9902 41.1816 16.2305 41.416 17.832 41.4844C19.6973 41.5723 20.3125 41.5918 25.0293 41.5918C29.7461 41.5918 30.3711 41.5723 32.2266 41.4844C33.8281 41.416 35.0684 41.1719 36.2402 40.7227C37.3633 40.2832 38.2324 39.7168 39.082 38.877C39.9219 38.0371 40.498 37.1582 40.9277 36.0352C41.3867 34.8633 41.6211 33.623 41.6895 32.0215C41.7773 30.166 41.7969 29.5508 41.7969 24.8242C41.7969 20.0879 41.7773 19.4727 41.6895 17.627C41.6211 16.0254 41.377 14.7852 40.9277 13.6133C40.4883 12.4902 39.9219 11.6211 39.082 10.7715C38.2422 9.93164 37.3633 9.35547 36.2402 8.92578C35.0684 8.4668 33.8281 8.23242 32.2266 8.16406C30.3613 8.07617 29.7461 8.05664 25.0293 8.05664C20.3125 8.05664 19.6875 8.07617 17.832 8.16406C16.2305 8.23242 14.9902 8.47656 13.8184 8.92578C12.6953 9.36523 11.8262 9.93164 10.9766 10.7715C10.1367 11.6113 9.56055 12.4902 9.13086 13.6133C8.67188 14.7852 8.4375 16.0254 8.36914 17.627C8.27148 19.6875 8.26172 24.8145 8.26172 28.4961C8.26172 28.9258 7.91016 29.2773 7.48047 29.2773C7.05078 29.2773 6.69922 28.9258 6.69922 28.4961C6.69922 22.5488 6.72852 19.1699 6.80664 17.5586C6.88477 15.7813 7.1582 14.3848 7.67578 13.0469C8.21289 11.7188 8.88672 10.6738 9.89258 9.66797C10.8984 8.66211 11.9336 7.98828 13.2715 7.4707C14.6094 6.95312 15.9961 6.67969 17.7832 6.60156C19.6777 6.51367 20.3027 6.49414 25.0488 6.49414C29.8047 6.49414 30.4297 6.51367 32.3242 6.60156C34.1016 6.67969 35.498 6.95312 36.8359 7.4707C38.1641 7.98828 39.209 8.66211 40.2148 9.66797C41.2207 10.6738 41.8945 11.709 42.4121 13.0469C42.9297 14.3848 43.2031 15.7715 43.2813 17.5586C43.3594 19.4336 43.3789 20.0586 43.3789 24.8242ZM31.709 13.8086C31.709 11.9922 33.1836 10.5273 34.9902 10.5273C36.8066 10.5273 38.2715 12.002 38.2715 13.8086C38.2715 15.625 36.7969 17.0898 34.9902 17.0898C33.1836 17.0898 31.709 15.6152 31.709 13.8086ZM33.2715 13.8086C33.2715 14.7559 34.043 15.5273 34.9902 15.5273C35.9375 15.5273 36.709 14.7559 36.709 13.8086C36.709 12.8613 35.9375 12.0898 34.9902 12.0898C34.043 12.0801 33.2715 12.8516 33.2715 13.8086ZM25.0488 15.0293C30.4492 15.0293 34.8438 19.4238 34.8438 24.8242C34.8438 30.2246 30.4492 34.6191 25.0488 34.6191C19.6484 34.6191 15.2539 30.2246 15.2539 24.8242C15.2539 19.4238 19.6484 15.0293 25.0488 15.0293ZM25.0488 16.5918C20.5078 16.5918 16.8164 20.2832 16.8164 24.8242C16.8164 29.3652 20.5078 33.0566 25.0488 33.0566C29.5898 33.0566 33.2813 29.3652 33.2813 24.8242C33.2813 20.2832 29.5898 16.5918 25.0488 16.5918ZM18.418 24.8242C18.418 25.2539 18.7695 25.6055 19.1992 25.6055C19.6289 25.6055 19.9805 25.2539 19.9805 24.8242C19.9805 22.0312 22.2559 19.7559 25.0488 19.7559C27.8418 19.7559 30.1172 22.0312 30.1172 24.8242C30.1172 25.7617 29.8633 26.6797 29.375 27.4707C28.4473 28.9844 26.8262 29.8926 25.0488 29.8926C24.6191 29.8926 24.2676 30.2441 24.2676 30.6738C24.2676 31.1035 24.6191 31.4551 25.0488 31.4551C27.373 31.4551 29.4922 30.2734 30.7031 28.291C31.3379 27.2461 31.6797 26.0547 31.6797 24.8242C31.6797 21.1719 28.7012 18.1934 25.0488 18.1934C21.3965 18.1934 18.418 21.1719 18.418 24.8242Z" fill="black"/>
<path d="M47.8613 31.5137H45.7324V27.2559H47.8613V31.5137ZM47.8613 34.3652H45.7324V38.623H47.8613V34.3652ZM47.8613 13.0371H45.7324V17.2949H47.8613V13.0371Z" fill="#FAACA8"/>
<path d="M47.8613 24.4043H45.7324V20.1465H47.8613V24.4043Z" fill="#DDD6F3"/>
<defs>
<linearGradient id="paint0_linear" x1="25.3407" y1="42.2593" x2="25.3407" y2="7.21319" gradientUnits="userSpaceOnUse">
<stop stop-color="#DDD6F3"/>
<stop offset="1" stop-color="#FAACA8"/>
</linearGradient>
</defs>
</svg>
