<svg width="151" height="139" viewBox="0 0 151 139" fill="none" xmlns="http://www.w3.org/2000/svg">
<path d="M34.3238 138.503C26.6418 138.503 20.2958 136.777 15.2858 133.326C10.3871 129.875 6.71313 125.143 4.2638 119.131C1.9258 113.119 0.756801 106.272 0.756801 98.59V40.307C0.756801 32.4023 1.9258 25.4997 4.2638 19.599C6.6018 13.587 10.2201 8.91099 15.1188 5.57099C20.1288 2.23099 26.5305 0.560995 34.3238 0.560995C42.1171 0.560995 48.4631 2.23099 53.3618 5.57099C58.2605 8.91099 61.8788 13.587 64.2168 19.599C66.5548 25.4997 67.7238 32.4023 67.7238 40.307V98.59C67.7238 106.383 66.4991 113.286 64.0498 119.298C61.7118 125.31 58.0935 130.042 53.1948 133.493C48.2961 136.833 42.0058 138.503 34.3238 138.503ZM34.3238 123.807C38.5545 123.807 41.7275 122.582 43.8428 120.133C46.0695 117.684 47.5725 114.566 48.3518 110.781C49.2425 106.884 49.6878 102.876 49.6878 98.757V40.14C49.6878 35.798 49.2981 31.7343 48.5188 27.949C47.7395 24.0523 46.2365 20.935 44.0098 18.597C41.8945 16.259 38.6658 15.09 34.3238 15.09C29.9818 15.09 26.6975 16.259 24.4708 18.597C22.2441 20.935 20.7411 24.0523 19.9618 27.949C19.1825 31.7343 18.7928 35.798 18.7928 40.14V98.757C18.7928 102.876 19.1825 106.884 19.9618 110.781C20.8525 114.566 22.4111 117.684 24.6378 120.133C26.9758 122.582 30.2045 123.807 34.3238 123.807ZM117.089 138.503C109.741 138.503 103.618 137.111 98.7193 134.328C93.8206 131.545 90.1466 127.537 87.6973 122.304C85.2479 117.071 84.0233 110.892 84.0233 103.767V99.258H101.725C101.725 99.7033 101.725 100.204 101.725 100.761C101.725 101.206 101.725 101.707 101.725 102.264C101.837 106.272 102.282 109.89 103.061 113.119C103.952 116.348 105.455 118.908 107.57 120.801C109.797 122.694 112.97 123.64 117.089 123.64C121.431 123.64 124.716 122.638 126.942 120.634C129.169 118.519 130.672 115.568 131.451 111.783C132.231 107.998 132.62 103.656 132.62 98.757C132.62 91.6317 131.284 85.8423 128.612 81.389C126.052 76.8243 121.487 74.3193 114.918 73.874C114.584 73.7627 114.139 73.707 113.582 73.707C113.137 73.707 112.747 73.707 112.413 73.707V55.838C112.747 55.838 113.137 55.838 113.582 55.838C114.028 55.838 114.417 55.838 114.751 55.838C121.097 55.6153 125.662 53.9453 128.445 50.828C131.229 47.7107 132.62 42.5337 132.62 35.297C132.62 29.1737 131.563 24.275 129.447 20.601C127.443 16.927 123.38 15.09 117.256 15.09C111.133 15.09 107.069 17.1497 105.065 21.269C103.061 25.277 101.948 30.454 101.725 36.8C101.725 37.2453 101.725 37.7463 101.725 38.303C101.725 38.7483 101.725 39.1937 101.725 39.639H84.0233V35.13C84.0233 27.8933 85.2479 21.7143 87.6973 16.593C90.1466 11.4717 93.8206 7.51933 98.7193 4.73599C103.729 1.95266 109.908 0.560995 117.256 0.560995C124.716 0.560995 130.895 1.95266 135.793 4.73599C140.692 7.51933 144.366 11.5273 146.815 16.76C149.265 21.8813 150.489 28.0603 150.489 35.297C150.489 43.4243 148.708 49.9373 145.145 54.836C141.694 59.7347 137.018 63.0747 131.117 64.856C135.237 66.0807 138.688 68.196 141.471 71.202C144.366 74.208 146.593 78.049 148.151 82.725C149.71 87.2897 150.489 92.6337 150.489 98.757C150.489 106.773 149.376 113.787 147.149 119.799C144.923 125.7 141.36 130.32 136.461 133.66C131.563 136.889 125.105 138.503 117.089 138.503Z" fill="#CFBE9B"/>
</svg>
