<svg width="124" height="139" viewBox="0 0 124 139" fill="none" xmlns="http://www.w3.org/2000/svg">
<path d="M34.0103 138.503C26.3283 138.503 19.9823 136.777 14.9723 133.326C10.0737 129.875 6.39966 125.143 3.95032 119.131C1.61232 113.119 0.443325 106.272 0.443325 98.59V40.307C0.443325 32.4023 1.61232 25.4997 3.95032 19.599C6.28832 13.587 9.90666 8.91099 14.8053 5.57099C19.8153 2.23099 26.217 0.560995 34.0103 0.560995C41.8037 0.560995 48.1497 2.23099 53.0483 5.57099C57.947 8.91099 61.5653 13.587 63.9033 19.599C66.2413 25.4997 67.4103 32.4023 67.4103 40.307V98.59C67.4103 106.383 66.1857 113.286 63.7363 119.298C61.3983 125.31 57.78 130.042 52.8813 133.493C47.9827 136.833 41.6923 138.503 34.0103 138.503ZM34.0103 123.807C38.241 123.807 41.414 122.582 43.5293 120.133C45.756 117.684 47.259 114.566 48.0383 110.781C48.929 106.884 49.3743 102.876 49.3743 98.757V40.14C49.3743 35.798 48.9847 31.7343 48.2053 27.949C47.426 24.0523 45.923 20.935 43.6963 18.597C41.581 16.259 38.3523 15.09 34.0103 15.09C29.6683 15.09 26.384 16.259 24.1573 18.597C21.9307 20.935 20.4277 24.0523 19.6483 27.949C18.869 31.7343 18.4793 35.798 18.4793 40.14V98.757C18.4793 102.876 18.869 106.884 19.6483 110.781C20.539 114.566 22.0977 117.684 24.3243 120.133C26.6623 122.582 29.891 123.807 34.0103 123.807ZM105.587 137V25.11C105.475 25.2213 104.195 25.5553 101.746 26.112C99.4078 26.6687 96.7358 27.2253 93.7298 27.782C90.7238 28.3387 88.0518 28.8397 85.7138 29.285C83.3758 29.7303 82.1511 29.953 82.0398 29.953V16.426C83.9325 15.9807 86.1035 15.3683 88.5528 14.589C91.1135 13.8097 93.6741 12.8633 96.2348 11.75C98.9068 10.6367 101.412 9.24499 103.75 7.57499C106.199 5.905 108.259 3.95666 109.929 1.72999H123.456V137H105.587Z" fill="#CFBE9B"/>
</svg>
