<svg width="152" height="139" viewBox="0 0 152 139" fill="none" xmlns="http://www.w3.org/2000/svg">
<path d="M34.2423 138.503C26.5603 138.503 20.2143 136.777 15.2043 133.326C10.3056 129.875 6.63159 125.143 4.18226 119.131C1.84426 113.119 0.675258 106.272 0.675258 98.59V40.307C0.675258 32.4023 1.84426 25.4997 4.18226 19.599C6.52026 13.587 10.1386 8.91099 15.0373 5.57099C20.0473 2.23099 26.4489 0.560995 34.2423 0.560995C42.0356 0.560995 48.3816 2.23099 53.2803 5.57099C58.1789 8.91099 61.7973 13.587 64.1353 19.599C66.4733 25.4997 67.6423 32.4023 67.6423 40.307V98.59C67.6423 106.383 66.4176 113.286 63.9683 119.298C61.6303 125.31 58.0119 130.042 53.1133 133.493C48.2146 136.833 41.9243 138.503 34.2423 138.503ZM34.2423 123.807C38.4729 123.807 41.6459 122.582 43.7613 120.133C45.9879 117.684 47.4909 114.566 48.2703 110.781C49.1609 106.884 49.6063 102.876 49.6063 98.757V40.14C49.6063 35.798 49.2166 31.7343 48.4373 27.949C47.6579 24.0523 46.1549 20.935 43.9283 18.597C41.8129 16.259 38.5843 15.09 34.2423 15.09C29.9003 15.09 26.6159 16.259 24.3893 18.597C22.1626 20.935 20.6596 24.0523 19.8803 27.949C19.1009 31.7343 18.7113 35.798 18.7113 40.14V98.757C18.7113 102.876 19.1009 106.884 19.8803 110.781C20.7709 114.566 22.3296 117.684 24.5563 120.133C26.8943 122.582 30.1229 123.807 34.2423 123.807ZM84.1087 137V124.308L118.511 70.701C121.071 66.693 123.409 62.9633 125.525 59.512C127.751 56.0607 129.533 52.4423 130.869 48.657C132.316 44.7603 133.04 40.307 133.04 35.297C133.04 29.0623 132.038 24.1637 130.034 20.601C128.03 17.0383 124.523 15.257 119.513 15.257C115.282 15.257 111.998 16.426 109.66 18.764C107.322 21.102 105.707 24.1637 104.817 27.949C103.926 31.7343 103.481 35.798 103.481 40.14V44.649H85.6117V39.973C85.6117 31.8457 86.6694 24.8873 88.7847 19.098C91.0114 13.1973 94.5184 8.63266 99.3057 5.40399C104.204 2.17533 110.662 0.560995 118.678 0.560995C129.588 0.560995 137.716 3.67833 143.06 9.91299C148.404 16.0363 151.076 24.5533 151.076 35.464C151.076 41.2533 150.352 46.319 148.905 50.661C147.569 55.003 145.787 59.0667 143.561 62.852C141.334 66.6373 138.885 70.534 136.213 74.542L105.151 121.97H147.903V137H84.1087Z" fill="#CFBE9B"/>
</svg>
