<svg width="50" height="50" viewBox="0 0 50 50" fill="none" xmlns="http://www.w3.org/2000/svg">
<path d="M32.5098 14.7072L32.5977 9.31653C32.6074 8.65246 33.2031 7.49036 33.8672 7.59778C33.8672 7.59778 36.8262 8.0177 38.5449 10.215C40.3906 9.82434 42.1289 9.11145 43.7012 8.12512C43.0957 10.1368 41.8066 11.8165 40.1367 12.881C41.7773 12.6661 43.3398 12.2072 44.7949 11.5236C43.7109 13.2521 42.3242 14.7657 40.7422 15.9767C40.7617 16.3478 40.7715 16.7189 40.7715 17.09C40.7715 28.4572 32.6074 41.5626 17.6758 41.5626C14.1992 41.5626 10.8887 40.7423 7.92969 39.2775L10.3809 39.004C21.5918 37.754 30.6445 29.1407 32.2559 17.9786C32.4121 16.8458 32.5 15.7521 32.5098 14.7072Z" fill="url(#paint0_linear)"/>
<path d="M17.6563 42.334C13.0762 42.334 8.6231 40.9473 4.77545 38.3301C4.47271 38.125 4.35552 37.7441 4.48248 37.4121C4.60943 37.0703 4.95123 36.8652 5.31256 36.9141C5.91802 36.9922 6.53326 37.0313 7.14849 37.0313C10.0391 37.0313 12.8028 36.2109 15.2344 34.6387C12.2754 33.8672 9.85357 31.5332 8.90631 28.3887C8.82818 28.125 8.88677 27.8418 9.07232 27.6367C9.25787 27.4316 9.53131 27.3438 9.80474 27.3926C9.89263 27.4121 9.98052 27.4219 10.0684 27.4414C7.60748 25.7422 6.02545 22.8125 6.02545 19.5801V19.5703V19.4629C6.02545 19.1895 6.1817 18.9258 6.42584 18.7988C6.66998 18.6621 6.96295 18.6621 7.20709 18.8086C7.46099 18.9551 7.72467 19.0918 7.9981 19.209C6.7774 17.5781 6.09381 15.5371 6.09381 13.3984C6.09381 11.748 6.50396 10.1172 7.29498 8.70117C7.42193 8.4668 7.65631 8.32031 7.91998 8.30078C8.18365 8.28125 8.43756 8.39844 8.60357 8.60352C12.3829 13.5156 17.8712 16.6211 23.7891 17.207C23.7501 16.8457 23.7305 16.4746 23.7305 16.1035C23.7305 10.9277 27.7247 6.71875 32.6368 6.71875C34.9415 6.71875 37.1778 7.67578 38.8282 9.35547C40.4004 8.97461 41.9044 8.33984 43.3008 7.4707C43.5743 7.29492 43.9356 7.31445 44.1895 7.50977C44.4532 7.70508 44.5606 8.04687 44.4629 8.35937C44.1211 9.51172 43.5645 10.5664 42.8516 11.4844C43.4083 11.2988 43.9454 11.084 44.4825 10.8301C44.795 10.6836 45.1661 10.7617 45.4004 11.0156C45.6348 11.2793 45.6641 11.6602 45.4786 11.9531C44.4044 13.6523 43.0958 15.127 41.5626 16.3574C41.5723 16.6016 41.5723 16.8457 41.5723 17.0996C41.5723 23.2227 39.336 29.4141 35.4395 34.0918C33.3204 36.6406 30.8008 38.6426 27.9395 40.0391C24.795 41.5625 21.3477 42.334 17.6563 42.334ZM8.24224 38.5547C11.1817 40.0098 14.3848 40.7715 17.6563 40.7715C31.6309 40.7715 39.9708 28.7305 39.9708 17.0801C39.9708 16.709 39.961 16.3477 39.9512 16.0059C39.9415 15.752 40.0489 15.5078 40.254 15.3516C41.1036 14.707 41.8751 13.9746 42.5782 13.1738C41.8067 13.3887 41.0157 13.5547 40.2149 13.6523C39.8536 13.7012 39.502 13.4863 39.3848 13.1445C39.2579 12.8027 39.3946 12.4121 39.6973 12.2168C40.6348 11.6211 41.4258 10.8301 42.0215 9.89258C40.9473 10.3711 39.834 10.7324 38.6915 10.9766C38.418 11.0352 38.1348 10.9375 37.9493 10.7324C36.543 9.15039 34.6485 8.28125 32.6075 8.28125C28.5645 8.28125 25.2637 11.7871 25.2637 16.1035C25.2637 16.7188 25.3321 17.3242 25.459 17.8906C25.5079 18.125 25.4493 18.3789 25.293 18.5645C25.1368 18.75 24.9024 18.8477 24.6583 18.8379C18.3301 18.5059 12.3829 15.498 8.15435 10.5371C7.82232 11.4453 7.64654 12.4121 7.64654 13.3887C7.64654 16.0156 8.87701 18.457 10.9278 19.9121C11.211 20.1074 11.3282 20.4688 11.211 20.8008C11.1036 21.1328 10.7813 21.3477 10.4395 21.3281C9.49224 21.2891 8.54498 21.0938 7.65631 20.752C8.11529 23.9551 10.42 26.6016 13.4669 27.2461C13.8184 27.3242 14.0723 27.627 14.0821 27.9785C14.0919 28.3398 13.8672 28.6621 13.5157 28.7598C12.6465 29.0137 11.7383 29.1211 10.8301 29.082C12.0411 31.6211 14.4922 33.291 17.2364 33.3496C17.5586 33.3594 17.8516 33.5645 17.959 33.877C18.0665 34.1895 17.9688 34.5313 17.7247 34.7363C14.9805 37.0215 11.7188 38.3301 8.24224 38.5547Z" fill="black"/>
<path d="M1.9043 48.4082V46.2793H7.46094V48.4082H1.9043ZM15.0684 48.4082V46.2793H9.51172V48.4082H15.0684Z" fill="#DDD6F3"/>
<path d="M17.168 48.4082V46.2793H41.0547V48.4082H17.168Z" fill="#FAACA8"/>
<defs>
<linearGradient id="paint0_linear" x1="26.3514" y1="42.9218" x2="26.3514" y2="6.29781" gradientUnits="userSpaceOnUse">
<stop stop-color="#DDD6F3"/>
<stop offset="1" stop-color="#FAACA8"/>
</linearGradient>
</defs>
</svg>
